<svg height="378" width="580" xmlns="http://www.w3.org/2000/svg">
<polyline points=" 460,64 461,64 462,64 463,64 464,64 465,64 466,64 467,64 468,64 469,65 470,65 471,65 472,65 473,65 474,65 475,65 476,65 477,65 478,66 478,67 478,68 478,69 477,70 477,71 477,72 477,73 476,74 476,75 476,76 476,77 476,78 476,79 476,78 475,77 476,76 476,75 476,74 476,73 477,72 477,71 476,70 475,70 475,69 476,68 476,67 475,66 474,65 473,65 472,65 471,65 470,65 469,65 468,65 467,65 466,64 465,64 464,64 463,64 462,65 461,66 460,66 459,66 458,66 457,66 456,67 455,68 455,69 454,70 454,71 453,72 452,73 452,74 452,75 451,76 450,77 449,78 448,79 448,80 447,81 447,82 448,83 448,84 448,85 448,86 448,87 449,88 450,89 451,90 451,91 452,92 452,93 452,94 452,95 452,96 453,97 454,96 455,96 456,96 457,97 458,97 459,98 460,97 461,97 462,96 463,95 464,94 464,93 464,92 465,92 466,92 467,92 466,93 466,94 467,95 466,96 466,97 465,98 464,99 463,100 464,101 464,102 464,103 463,104 462,104 461,105 462,106 461,106 460,106 459,106 458,105 457,105 456,105 455,105 454,105 453,105 452,105 451,104 450,104 449,104 448,104 447,104 446,105 445,105 444,104 443,104 442,104 441,104 441,103 442,103 443,104 444,104 445,104 446,103 447,103 448,102 447,101 447,100 447,99 446,98 445,98 446,97 445,96 444,95 444,94 444,93 444,92 443,91 442,90 441,89 440,88 440,87 440,86 441,85 441,84 440,83 441,84 442,83 442,82 442,81 441,80 441,79 442,78 443,77 443,76 443,75 444,74 445,73 445,72 446,71 447,70 448,69 448,68 449,67 450,66 451,66 452,66 453,66 454,66 455,66 456,65 457,65 458,65 459,65 460,64 " style="fill:None; stroke:red; stroke-width:0.5" />
<polyline points=" 175,93 174,94 175,95 176,96 176,97 176,98 175,99 174,100 174,101 175,102 176,102 175,102 174,103 173,103 172,103 171,103 170,103 169,103 168,104 167,104 166,103 165,104 164,105 163,106 162,105 161,105 162,104 162,103 162,102 161,101 160,100 159,100 159,99 160,99 161,98 161,97 160,96 159,96 158,95 157,96 156,96 155,96 154,97 155,98 156,98 157,99 156,100 157,101 158,102 157,103 157,104 156,104 156,103 155,102 154,102 153,102 152,102 151,103 151,104 152,105 151,106 150,105 149,105 148,106 147,106 146,106 145,106 144,106 143,106 142,106 141,106 140,106 139,105 138,106 137,105 136,106 135,107 134,107 133,107 132,107 131,107 130,108 129,108 128,107 127,108 126,108 125,108 124,108 123,108 122,108 121,108 120,108 119,108 118,108 117,109 116,109 115,110 114,110 113,110 112,110 111,110 110,110 109,110 108,110 107,110 106,110 105,110 104,110 103,110 102,110 101,110 100,110 99,110 98,109 97,109 96,109 95,109 94,109 93,109 92,109 91,109 90,109 89,109 88,109 87,109 86,109 85,109 84,109 83,108 82,108 81,107 80,106 79,106 78,106 77,106 76,105 75,105 74,105 73,105 72,105 71,104 70,103 69,102 70,103 71,104 72,105 73,105 74,105 75,104 76,105 77,105 78,105 79,105 80,105 81,105 82,106 83,106 84,107 85,106 86,107 87,106 88,106 89,105 88,104 88,103 89,102 89,101 90,100 91,100 92,100 93,100 94,100 95,100 96,100 97,100 98,101 99,100 100,99 100,98 99,97 98,97 97,97 96,97 95,97 94,97 93,97 92,97 91,97 90,97 89,97 90,97 91,97 92,97 93,97 94,97 95,97 96,97 97,97 98,97 99,97 100,97 101,97 102,97 103,97 103,98 104,99 105,99 106,99 107,98 107,97 108,97 109,97 109,98 110,99 111,99 112,99 113,98 113,97 113,96 114,96 115,96 116,96 117,96 118,96 119,96 120,96 121,96 122,96 123,96 124,96 125,96 126,96 127,96 128,96 129,96 130,96 130,97 130,98 129,99 128,100 129,101 130,101 131,102 132,102 132,103 133,104 134,104 135,104 136,104 137,104 138,104 139,104 140,104 141,103 142,103 143,102 144,101 145,100 144,99 143,99 142,99 141,98 140,98 139,98 138,98 137,98 136,98 135,98 134,98 133,98 134,97 135,97 136,97 137,96 138,96 139,96 140,96 141,96 142,96 143,96 144,96 145,96 146,96 147,96 148,95 149,95 150,95 151,95 152,95 153,95 154,95 155,95 156,95 157,95 158,95 159,95 160,95 161,95 162,95 163,95 164,95 165,95 166,95 167,95 168,95 169,95 170,94 171,94 172,94 173,94 174,94 175,93 " style="fill:None; stroke:red; stroke-width:0.5" />
<polyline points=" 395,102 396,102 397,102 398,102 399,102 400,102 401,102 402,102 403,102 404,102 405,102 406,102 407,102 408,102 409,102 410,102 411,102 412,103 412,104 413,105 414,106 415,107 416,108 417,108 416,108 415,108 414,107 413,106 412,106 411,106 410,105 409,106 408,106 407,106 406,106 405,106 404,107 403,107 402,108 401,109 401,110 400,110 399,111 398,111 397,111 396,111 395,111 394,111 394,110 395,109 394,108 393,108 392,108 391,107 390,107 389,107 388,107 387,107 386,108 385,107 384,108 383,108 382,108 381,108 380,107 379,108 378,108 377,108 376,108 375,108 374,108 373,108 372,108 371,107 370,108 369,108 368,108 367,109 367,110 368,111 369,110 370,110 371,111 372,110 373,110 374,111 375,111 376,110 377,111 378,111 379,112 380,112 381,112 382,112 383,111 384,111 385,111 386,111 385,112 386,113 387,113 388,113 389,113 390,114 391,113 392,113 392,114 393,115 394,115 395,115 396,114 397,114 398,115 399,116 400,117 401,118 402,118 403,119 404,120 405,121 406,122 407,121 408,122 407,123 408,124 409,124 410,124 411,125 412,125 413,125 414,125 415,125 416,125 417,126 418,127 417,127 416,127 415,127 414,127 413,127 412,127 411,127 410,127 409,127 408,127 407,127 406,126 405,126 404,126 403,126 402,126 401,126 400,125 399,125 398,125 397,125 396,125 395,125 394,125 393,125 392,125 391,125 390,125 389,125 388,125 387,125 386,125 385,125 384,125 383,125 382,125 381,125 380,125 379,125 378,125 377,125 376,125 375,124 374,124 373,124 372,124 371,124 370,124 369,124 368,124 367,124 366,124 365,124 364,124 363,124 362,124 361,124 360,124 359,124 358,123 357,123 356,123 355,123 354,123 353,123 352,123 351,123 350,123 349,122 348,122 347,122 346,122 345,122 344,122 343,122 342,122 341,122 340,122 339,121 338,121 337,121 336,121 335,121 334,121 333,121 332,121 331,121 330,121 329,121 328,121 327,121 326,121 325,121 324,121 323,121 322,122 322,123 321,123 320,123 319,122 318,122 317,122 316,122 315,122 314,122 313,122 312,122 311,121 310,121 309,121 308,122 307,122 306,123 307,124 308,125 309,126 308,126 307,126 306,126 305,127 304,127 303,127 302,127 301,127 300,127 299,127 298,127 297,127 296,126 295,126 294,125 293,125 292,125 291,125 290,125 289,125 289,124 289,123 289,122 290,121 289,120 288,120 287,120 286,120 285,120 284,120 283,120 282,120 281,120 280,120 279,120 278,120 277,119 276,119 275,119 274,119 273,119 272,119 271,119 270,119 269,119 268,119 267,119 266,119 265,119 264,119 263,119 262,119 261,119 260,119 259,119 258,119 257,120 256,119 255,119 254,119 253,120 252,120 251,121 250,121 249,122 248,123 248,124 248,125 249,126 249,127 248,127 248,126 247,125 246,126 245,127 244,128 243,129 243,130 242,131 242,132 241,133 241,134 242,135 243,136 244,136 245,136 246,135 247,134 248,134 247,135 246,135 245,136 245,137 246,138 247,138 248,138 249,138 250,139 249,139 248,138 247,139 247,140 248,141 249,142 250,142 251,143 252,143 253,143 254,144 255,145 256,145 257,145 258,145 259,145 260,146 261,147 262,147 263,148 264,148 265,148 266,148 267,149 268,150 269,150 270,150 271,151 272,151 273,152 273,153 273,154 272,155 273,154 273,153 272,152 271,151 270,151 269,150 268,150 267,150 266,149 265,149 264,148 263,148 262,148 261,148 260,147 259,147 258,147 257,147 256,146 255,146 254,145 253,144 252,144 251,144 250,143 249,143 248,143 247,142 246,142 245,142 244,141 243,140 242,139 241,139 240,138 239,138 238,137 237,137 236,137 235,137 234,136 233,136 232,136 231,136 230,136 229,136 228,136 227,136 226,136 225,136 224,135 223,135 222,134 221,134 220,134 219,134 218,134 217,134 216,134 215,133 214,133 213,133 212,132 211,132 211,131 211,130 211,129 210,128 209,128 208,127 207,127 206,128 205,128 204,127 203,127 202,126 201,126 200,126 199,126 198,126 197,125 196,125 195,125 194,126 193,127 192,126 191,126 190,125 189,125 188,124 187,124 186,125 185,125 184,125 183,125 182,125 181,126 180,125 179,124 178,123 177,123 176,122 175,122 175,121 175,120 176,121 177,122 178,123 179,123 180,122 180,121 181,122 182,121 183,121 184,120 184,119 183,118 182,118 181,118 180,118 179,118 178,118 177,118 176,117 175,117 174,117 173,117 172,117 171,117 170,118 170,119 169,118 168,117 167,117 166,116 165,116 164,117 163,117 162,117 161,118 161,119 161,120 162,121 163,121 164,121 165,121 166,121 167,121 167,122 167,123 166,123 165,123 164,124 163,124 162,123 161,123 160,124 159,125 159,126 158,127 157,128 157,129 157,130 156,131 156,132 156,133 156,134 156,135 156,136 156,137 157,138 158,139 159,140 160,141 161,142 161,143 161,144 161,145 161,146 161,147 161,148 162,149 163,150 164,151 163,151 162,151 161,151 160,151 159,151 158,151 157,151 156,151 155,151 154,151 153,151 152,150 151,150 150,150 149,150 148,150 149,150 150,150 151,150 152,150 153,150 154,150 155,150 156,150 157,150 158,151 159,151 160,150 161,149 160,148 159,147 159,146 158,145 157,145 156,144 155,144 155,143 155,142 156,141 156,140 157,139 156,138 156,137 155,136 155,135 156,134 156,133 155,132 154,132 153,132 152,133 151,132 150,132 149,132 148,132 147,132 146,132 145,131 144,130 143,129 142,129 141,128 140,127 139,127 138,127 137,127 136,126 135,126 135,125 135,124 134,123 133,123 133,122 133,121 133,120 133,119 132,118 131,117 130,117 129,117 128,117 127,117 126,117 127,117 128,117 129,117 130,117 131,116 132,116 133,117 134,117 135,116 136,116 137,117 138,116 139,116 139,117 139,118 138,117 137,118 136,118 135,117 134,117 133,118 133,119 133,120 134,121 135,120 136,120 137,120 138,120 139,121 140,121 141,122 141,123 142,124 143,124 144,125 145,125 146,126 147,127 147,128 148,129 149,129 150,130 151,130 152,130 153,131 154,130 155,130 156,129 157,128 157,127 157,126 156,125 156,124 156,123 156,122 157,121 158,120 159,119 159,118 160,117 159,116 160,115 160,116 161,117 162,116 162,115 163,115 164,115 165,116 166,116 167,116 168,116 169,116 170,116 171,116 172,116 173,116 174,116 175,116 176,116 177,116 178,116 179,115 180,116 181,115 182,115 183,115 184,115 185,115 186,116 187,116 188,116 189,116 190,115 191,116 192,116 193,116 194,116 195,116 196,116 197,116 198,116 199,116 200,116 201,116 202,115 202,114 203,114 204,114 205,114 206,114 207,113 208,113 209,113 210,113 211,113 212,113 213,113 214,114 215,114 216,114 217,114 218,114 219,113 220,113 221,113 222,113 223,113 224,113 225,113 224,113 223,114 222,114 221,114 220,114 219,114 218,114 217,114 216,114 215,114 214,114 213,114 212,114 211,115 210,115 209,115 208,115 207,115 206,116 207,117 208,117 209,117 210,117 211,117 212,117 213,117 214,116 215,116 216,116 217,116 218,116 219,116 220,116 221,117 222,117 223,118 224,118 225,118 226,118 227,118 228,118 229,118 230,118 231,118 232,117 233,117 234,117 235,118 236,117 237,117 238,117 239,117 240,118 241,118 242,118 243,119 244,119 245,119 246,118 247,118 248,117 248,118 249,119 250,119 251,118 252,118 253,118 254,118 255,118 256,118 257,118 258,118 259,118 260,118 261,117 262,118 263,118 264,118 265,118 266,118 267,117 266,116 265,116 266,116 267,117 268,117 269,116 270,116 271,116 272,116 273,116 274,116 275,116 276,116 277,117 278,117 279,117 280,118 281,119 282,119 283,119 284,119 285,119 286,119 287,119 288,119 289,120 290,120 291,120 292,120 293,120 294,120 295,120 296,120 297,120 298,120 299,120 300,120 301,120 302,120 303,120 304,120 305,120 306,121 307,121 308,121 309,121 310,121 311,121 312,121 313,121 314,121 315,121 316,121 317,121 318,121 319,121 320,121 321,121 322,121 323,121 324,121 325,120 326,120 327,120 328,120 329,120 330,120 331,120 332,120 333,120 334,121 335,121 336,121 337,121 338,121 339,121 340,121 341,121 342,121 343,121 344,122 345,122 346,122 347,122 348,122 349,122 350,122 351,122 352,122 353,123 354,123 355,123 356,123 357,123 358,123 359,123 360,123 361,123 362,123 363,123 364,123 365,123 366,123 367,123 368,124 369,124 370,124 371,124 372,124 373,124 374,124 375,124 376,124 377,124 378,124 379,124 380,124 381,124 382,124 383,124 384,124 385,124 386,124 387,125 388,124 389,124 390,124 391,124 392,124 393,124 394,124 395,124 396,124 397,124 398,124 399,125 400,125 401,125 402,125 403,124 403,123 403,122 403,121 402,120 402,119 401,118 400,118 399,117 398,117 397,117 396,117 395,116 394,116 393,115 392,115 391,114 390,114 389,114 388,114 387,113 386,113 385,113 384,113 383,113 382,113 381,113 380,112 379,112 378,112 377,112 376,112 375,112 374,112 373,112 372,111 371,111 370,111 369,111 368,111 367,111 366,111 365,110 364,110 363,110 362,110 361,110 360,109 359,109 358,109 357,109 356,109 355,109 354,108 353,108 352,108 351,108 350,108 349,108 348,107 347,107 346,107 345,107 344,106 343,106 344,106 345,106 346,106 347,105 348,105 349,105 350,105 351,105 352,105 353,105 354,105 355,105 356,105 357,105 358,105 359,105 360,105 361,104 362,104 363,104 364,104 365,104 366,104 367,104 368,104 369,104 370,104 371,104 372,104 373,104 374,104 375,103 376,103 377,103 378,103 379,103 380,103 381,103 382,103 383,103 384,103 385,103 386,103 387,103 388,103 389,103 390,103 391,103 392,103 393,103 394,103 395,102 " style="fill:None; stroke:red; stroke-width:0.5" />
<polyline points=" 533,154 534,154 535,154 536,154 537,154 538,154 539,154 540,154 541,154 542,154 543,154 544,154 545,154 546,155 547,155 548,155 549,155 550,155 551,155 552,155 553,155 554,155 555,155 556,155 557,155 558,155 558,156 557,157 557,158 557,159 556,160 556,161 556,162 556,163 555,164 555,165 554,166 554,167 554,168 554,169 554,170 554,171 553,172 553,173 553,174 552,175 552,176 552,177 552,178 551,179 551,180 551,181 550,182 550,183 550,184 550,185 549,186 549,187 549,188 549,189 548,190 548,191 548,192 548,193 547,194 547,195 546,195 545,196 546,197 546,198 545,199 544,200 544,201 543,202 543,203 542,204 542,205 542,206 542,207 542,208 541,209 541,210 541,211 541,212 542,213 542,214 541,215 540,216 539,217 539,218 538,219 537,220 536,220 535,221 534,222 533,222 532,223 531,224 530,224 529,225 528,225 527,225 526,226 525,226 524,226 523,227 522,227 521,227 522,227 523,226 523,225 524,225 525,225 526,226 527,225 528,224 527,223 527,222 528,221 528,220 529,219 529,218 529,217 530,216 530,215 530,214 531,213 531,212 532,211 532,210 533,210 534,210 535,209 536,208 535,207 534,206 534,205 534,204 534,203 535,202 535,201 535,200 536,199 536,198 537,197 537,196 537,195 537,194 538,193 538,192 539,191 539,190 539,189 540,188 540,187 541,186 541,185 541,184 542,183 543,183 544,182 544,181 543,180 543,179 544,178 544,177 545,176 545,175 545,174 546,173 546,172 547,171 547,170 547,169 548,168 548,167 549,166 550,165 550,164 551,163 552,162 552,161 552,160 553,159 553,158 553,157 552,156 551,155 550,155 549,155 548,155 547,155 546,155 545,155 544,155 543,155 542,155 541,155 540,155 539,155 538,154 537,155 536,155 535,155 534,155 533,156 532,156 531,156 530,156 529,157 528,157 527,158 526,159 525,160 524,161 523,162 522,163 522,164 521,165 520,166 519,167 518,168 517,169 516,170 515,171 514,172 514,173 513,174 512,175 511,176 510,177 509,178 509,179 508,180 507,181 506,182 505,183 504,184 503,185 502,186 502,187 501,188 501,189 502,190 502,191 503,192 504,193 503,194 502,194 501,194 500,194 499,195 498,195 497,196 496,197 495,197 494,197 493,197 492,198 491,197 490,196 489,196 488,196 487,197 487,198 486,198 485,197 484,198 483,198 482,198 481,198 480,199 479,199 478,199 477,200 477,201 476,202 476,203 476,204 476,205 475,206 475,207 475,208 475,209 476,210 477,210 478,211 479,211 480,211 481,211 482,211 483,211 484,212 485,213 486,214 487,215 488,216 489,216 490,215 490,214 491,214 491,215 490,216 489,217 490,218 491,218 492,218 493,218 494,218 495,219 496,219 497,219 498,219 499,220 500,220 501,220 501,221 501,222 501,223 502,224 503,225 504,225 505,225 506,226 505,227 504,227 503,227 502,227 501,226 500,227 499,227 498,227 497,228 497,229 497,230 498,231 499,231 500,231 499,231 498,231 497,231 496,231 495,231 494,232 493,232 492,232 491,232 490,232 489,233 488,233 487,233 486,233 485,233 484,233 483,233 482,234 481,234 480,234 479,234 478,234 477,235 476,235 475,235 474,235 473,235 472,235 471,236 470,236 469,236 470,236 471,236 472,235 473,235 474,234 474,233 474,232 475,232 476,232 477,232 478,232 479,231 480,231 481,230 482,229 483,229 484,228 485,229 486,230 487,230 488,229 489,229 490,228 489,227 488,226 487,225 486,226 485,226 484,226 483,226 482,226 482,225 481,224 480,225 479,224 478,224 477,223 476,223 475,223 474,223 474,222 473,221 472,221 471,221 470,221 469,221 468,221 467,221 466,220 465,220 464,220 463,221 462,221 461,221 460,221 459,221 458,221 457,221 456,221 455,220 454,221 453,221 452,221 451,221 450,220 449,220 448,220 447,220 446,220 445,220 444,220 443,220 442,220 441,220 440,219 439,219 438,220 437,220 436,220 435,221 435,222 435,223 436,224 435,225 435,226 435,227 435,228 434,228 433,229 432,230 431,230 431,229 432,228 431,227 430,227 429,228 428,229 428,228 428,227 428,226 428,225 428,224 428,223 427,222 427,221 426,220 425,220 424,220 423,220 422,221 422,222 421,222 420,222 419,221 418,221 417,221 416,221 415,221 414,221 413,221 412,221 411,221 410,220 409,219 408,218 409,218 410,218 411,218 412,218 413,218 414,218 415,218 416,218 417,218 418,219 419,219 420,219 421,219 422,219 423,219 424,219 425,219 426,219 427,219 428,219 429,219 430,219 431,219 432,219 433,219 434,219 435,219 436,219 437,219 438,219 439,219 440,219 441,219 442,219 443,219 444,219 445,219 446,219 447,219 448,219 449,219 450,219 451,219 452,219 453,219 454,219 455,219 456,220 457,220 458,220 459,220 460,220 461,220 462,220 463,220 464,220 465,220 466,220 467,220 468,220 469,220 470,219 471,220 472,220 473,220 474,221 475,221 476,221 477,221 478,221 479,222 480,222 481,223 482,223 483,223 484,223 485,223 486,223 487,223 488,223 489,223 490,223 491,223 492,223 493,223 494,223 495,223 496,223 497,224 498,223 499,223 500,222 500,221 499,220 498,220 497,220 496,220 495,220 494,219 493,218 492,218 491,218 490,218 489,217 488,217 487,217 486,217 485,217 485,216 484,215 483,214 482,214 481,214 480,213 479,213 478,213 477,212 476,212 475,211 474,210 473,209 472,209 471,208 470,207 469,208 468,208 467,208 466,208 465,207 464,207 463,207 462,207 461,207 460,207 459,206 458,206 457,206 456,206 455,206 454,206 453,205 452,206 451,205 450,204 449,204 448,204 447,204 446,204 445,204 444,204 443,203 442,203 441,203 440,204 439,204 438,203 437,203 436,203 437,203 438,203 439,202 438,201 438,200 437,199 436,199 435,200 435,201 434,200 433,201 432,201 431,200 430,201 430,202 429,203 428,203 427,202 426,202 425,201 424,201 423,201 422,201 421,200 420,200 419,200 418,200 419,200 420,200 421,199 422,199 423,199 424,199 425,199 426,199 427,199 428,199 429,199 430,199 431,198 432,198 433,198 434,198 435,198 436,198 437,198 438,198 439,198 440,198 441,198 442,198 443,197 444,197 445,197 446,197 447,197 448,197 449,197 450,197 451,197 452,197 453,197 454,197 455,196 456,196 457,196 458,196 459,196 460,196 461,196 462,196 463,196 464,196 465,196 466,196 467,195 468,195 469,195 470,195 471,195 472,195 473,195 474,195 475,195 476,195 477,195 478,195 479,194 480,194 481,194 482,194 483,194 484,194 485,194 486,194 487,194 488,194 489,194 490,193 491,193 492,193 493,193 494,193 495,192 496,192 497,191 498,191 499,192 500,191 500,190 499,189 499,188 500,187 501,186 502,185 503,184 504,183 505,182 506,181 506,180 507,179 508,178 509,177 510,176 511,175 512,174 512,173 513,172 514,171 515,170 516,169 517,168 518,167 519,166 520,165 520,164 521,163 522,162 523,161 524,160 525,159 526,158 526,157 527,157 528,156 529,156 530,155 531,155 532,155 533,154 " style="fill:None; stroke:red; stroke-width:0.5" />
<polyline points=" 233,191 234,192 235,192 236,193 237,193 237,194 237,195 238,196 239,196 238,196 237,195 236,196 236,197 235,198 235,199 236,200 237,201 238,202 239,203 240,202 240,201 240,200 240,199 240,200 240,201 240,202 241,203 242,204 241,204 240,203 239,203 238,202 237,201 236,201 235,202 234,203 233,203 232,203 231,203 230,204 229,204 228,204 227,204 226,204 225,205 224,205 223,205 222,205 221,204 220,205 219,205 218,205 217,205 216,205 215,205 214,204 213,204 212,205 211,206 210,206 209,206 208,206 207,206 206,206 205,206 204,207 203,207 202,206 201,206 200,206 199,206 198,206 197,207 196,208 195,208 194,208 193,208 192,208 191,208 190,208 189,208 188,208 187,209 186,208 185,208 184,209 184,208 183,207 182,207 181,208 182,209 181,209 180,209 179,209 178,209 177,209 176,209 175,209 174,209 173,210 174,211 175,211 176,211 177,211 178,211 179,211 180,211 181,211 182,211 183,211 182,211 181,211 180,211 179,211 178,211 177,211 176,211 175,211 174,211 173,211 172,211 171,211 170,211 169,211 168,211 167,211 166,211 165,211 164,211 163,211 162,211 161,211 160,211 159,211 158,211 157,211 156,211 155,211 154,211 153,211 152,211 151,211 150,211 149,211 148,211 147,211 146,211 145,211 144,211 143,211 142,211 141,211 140,210 139,210 138,210 137,210 136,211 135,210 134,210 133,210 133,209 132,208 131,207 130,207 129,207 128,206 127,206 126,206 126,205 125,204 126,203 127,203 128,203 127,204 126,205 127,206 128,206 129,206 130,206 131,206 132,205 132,204 133,203 133,202 134,202 135,202 136,202 136,203 136,204 136,205 137,206 138,206 139,206 140,206 141,205 141,204 140,203 140,202 141,201 142,201 143,201 144,201 145,201 146,201 147,200 148,200 149,200 150,200 151,200 152,200 153,200 154,200 155,200 156,200 157,200 158,199 159,199 160,199 161,199 162,199 163,199 164,199 165,199 166,199 167,199 168,199 169,199 170,199 171,199 172,198 173,198 174,198 175,198 176,198 177,198 178,198 179,198 180,198 181,198 182,198 183,198 184,198 185,197 186,197 187,197 188,197 189,197 190,197 191,197 192,197 193,197 194,197 195,197 196,197 197,197 198,197 199,196 200,196 201,196 202,196 203,196 204,196 205,196 206,196 207,196 208,196 209,196 210,196 211,196 212,196 213,196 214,196 215,196 216,195 217,195 218,195 219,195 220,194 219,193 220,193 221,193 222,192 223,192 224,192 225,192 226,192 227,192 228,192 229,192 230,192 231,193 232,194 233,193 233,192 233,191 " style="fill:None; stroke:red; stroke-width:0.5" />
<polyline points=" 318,211 319,211 320,211 321,211 322,211 322,212 323,213 324,213 325,213 326,213 327,213 328,213 329,213 330,213 331,213 332,213 333,213 334,213 335,213 336,213 337,212 338,212 339,212 340,212 341,212 342,213 343,213 344,214 345,214 346,214 346,215 347,216 348,216 349,216 350,216 351,216 352,216 353,217 354,217 355,217 356,217 357,217 358,217 359,217 360,217 361,217 362,217 363,217 364,217 365,217 366,217 367,217 368,217 369,217 370,217 371,217 372,217 373,217 374,217 375,217 376,218 377,218 378,218 379,218 380,217 381,217 382,218 383,217 384,217 383,218 382,218 381,219 380,220 379,221 378,222 377,223 376,223 375,223 375,222 375,221 374,220 373,220 372,220 371,221 370,220 369,221 369,222 368,223 367,223 366,223 365,223 364,223 363,223 362,223 361,222 360,223 359,224 359,225 358,226 358,227 358,228 357,229 357,230 357,229 357,228 356,227 356,226 355,225 354,226 353,227 353,228 354,229 354,230 353,229 352,230 352,229 352,228 352,227 352,226 352,225 353,224 352,223 352,222 352,221 351,220 350,219 349,219 350,218 349,217 348,217 347,217 346,218 346,219 345,219 344,218 343,218 342,219 341,219 340,220 339,219 338,219 337,220 336,221 336,222 335,222 334,221 333,220 332,220 332,219 331,218 330,218 329,217 328,218 327,219 326,220 327,221 326,222 325,221 324,220 323,221 323,222 323,223 323,224 324,225 325,225 326,225 326,226 327,227 328,228 329,229 330,230 331,230 332,231 333,232 333,233 333,234 334,235 335,236 336,235 337,234 338,233 338,232 339,232 339,233 339,234 338,235 338,236 338,237 338,238 337,238 336,239 335,239 334,239 333,240 333,241 334,242 335,242 336,242 337,243 338,243 339,242 340,242 341,242 342,242 343,243 344,242 345,242 346,242 347,241 348,242 349,242 349,243 348,243 347,244 346,245 345,245 344,244 343,244 342,245 341,245 340,246 339,246 338,245 338,244 337,243 336,244 336,245 335,246 335,247 335,248 336,249 337,249 338,249 339,250 340,250 341,250 342,251 341,252 340,252 339,253 338,254 337,254 338,253 338,252 337,251 336,250 335,249 334,249 333,248 332,248 331,248 330,247 329,247 328,246 327,246 326,246 325,245 324,245 323,245 322,245 321,244 320,244 319,244 318,244 317,243 316,244 315,243 314,243 313,242 312,242 311,241 310,241 309,241 309,240 308,239 307,239 306,239 305,239 304,239 303,239 302,239 302,238 301,237 300,237 299,238 298,239 297,238 296,238 295,238 294,237 293,236 292,236 291,237 290,237 289,236 288,236 287,236 286,235 285,235 284,235 284,234 285,234 286,233 287,232 288,233 289,233 290,232 289,231 290,232 291,231 292,231 293,232 294,231 294,230 295,229 296,228 297,227 297,228 297,229 297,230 298,231 299,231 300,230 301,229 301,228 302,228 301,229 302,230 302,231 302,232 302,233 302,234 303,235 302,236 303,237 304,237 305,238 306,237 306,236 305,235 305,234 306,234 307,233 307,232 307,231 306,230 305,230 305,229 306,228 306,229 306,230 307,231 308,230 308,229 309,228 309,227 309,226 308,225 307,226 307,225 308,225 309,224 310,224 311,223 311,222 311,221 311,220 312,219 313,218 313,217 314,218 315,217 316,217 317,217 318,216 319,215 318,214 317,213 316,213 317,213 318,213 319,213 320,213 321,213 322,212 321,211 320,211 319,211 318,211 " style="fill:None; stroke:red; stroke-width:0.5" />
<polyline points=" 115,227 116,227 116,228 117,229 117,230 118,231 119,232 120,233 120,234 121,235 120,234 119,235 119,236 120,237 120,238 120,239 120,240 119,241 119,242 119,243 119,244 119,245 119,246 118,247 118,248 118,249 117,250 117,251 117,252 116,253 115,254 115,255 114,255 113,255 112,255 111,256 111,257 112,258 113,259 114,259 115,259 116,259 117,258 118,258 119,257 120,257 120,258 120,259 120,260 121,261 121,262 122,263 122,264 123,265 124,266 124,267 123,267 122,266 121,266 120,267 119,268 119,269 119,270 119,271 119,272 120,273 121,273 122,273 123,273 124,273 125,274 125,275 124,276 124,277 123,278 123,279 122,280 121,281 120,281 119,282 118,282 117,283 117,284 116,285 115,285 114,285 113,285 112,284 111,284 111,283 110,282 109,282 108,281 107,280 106,280 106,279 105,278 105,277 106,276 105,275 106,274 105,273 104,272 104,271 104,270 104,269 104,268 104,267 104,266 103,265 103,264 104,263 104,262 104,261 104,260 105,259 105,258 104,257 104,256 105,256 106,255 107,255 108,254 108,253 107,252 107,251 106,250 106,249 106,248 106,247 106,246 106,245 106,244 106,245 106,246 106,247 106,248 106,249 106,250 107,251 107,252 108,253 109,254 110,254 111,255 112,255 113,255 114,255 115,254 116,253 117,252 117,251 116,250 116,249 116,248 116,247 116,246 116,245 117,244 118,243 119,242 119,241 119,240 119,239 119,238 119,237 119,236 119,235 118,234 117,233 117,232 117,231 116,230 115,229 115,228 115,227 " style="fill:None; stroke:red; stroke-width:0.5" />
<polyline points=" 455,237 456,237 457,237 458,237 459,237 460,237 461,237 462,237 463,237 464,237 465,237 464,237 463,237 462,237 461,237 460,237 459,237 458,238 457,238 456,238 455,238 454,238 453,238 452,239 451,239 450,239 449,239 448,239 447,239 446,239 445,240 444,240 443,240 442,240 441,240 440,240 439,240 438,240 437,241 436,241 435,241 434,241 433,241 432,241 431,242 430,242 429,242 428,242 427,242 426,242 425,242 424,243 423,243 422,243 421,243 420,243 419,243 418,243 417,243 416,244 415,244 414,244 413,244 412,245 411,245 410,245 409,246 408,246 407,246 406,247 405,247 404,247 403,247 402,248 401,248 400,249 399,249 398,249 397,249 396,249 395,250 394,250 393,250 392,250 391,251 390,251 389,251 388,251 387,251 386,252 385,252 384,252 383,252 382,253 381,253 380,253 379,253 378,253 377,253 376,253 375,254 374,254 373,254 372,255 371,255 370,255 369,255 368,255 367,255 366,256 365,256 364,256 363,256 362,257 361,257 360,257 359,257 358,257 357,258 356,258 355,258 354,258 353,258 352,259 351,259 350,259 349,259 348,259 347,260 346,260 345,260 344,260 343,260 342,260 341,261 340,261 339,261 338,261 337,261 336,261 335,261 336,261 337,261 338,260 337,259 338,260 339,259 340,259 341,258 342,258 343,258 344,257 345,257 346,257 347,257 348,257 349,256 350,257 351,258 352,257 352,256 353,255 353,254 354,253 355,252 356,251 357,251 358,250 359,249 360,250 361,250 362,250 363,250 364,249 364,248 363,247 364,247 365,247 366,247 367,247 368,246 369,246 370,245 369,244 368,243 369,242 370,243 371,244 372,243 373,244 374,245 375,246 376,247 377,248 378,249 379,249 380,250 381,250 382,250 383,250 384,250 385,250 386,251 387,250 388,250 389,250 390,250 391,250 392,250 393,249 394,249 395,248 396,248 397,248 398,247 399,247 400,246 401,246 402,245 403,245 404,244 405,244 406,244 407,245 408,245 409,244 410,244 411,243 412,242 413,241 413,242 414,243 415,242 415,241 415,240 416,240 417,240 418,240 419,240 420,240 421,241 422,240 423,240 424,240 425,239 426,240 427,240 428,240 429,239 430,239 431,240 432,239 433,239 434,239 435,239 436,239 437,239 438,239 439,239 440,238 441,239 442,238 443,238 444,239 445,238 446,238 447,238 448,238 449,238 450,238 451,238 452,238 453,238 454,238 455,237 " style="fill:None; stroke:red; stroke-width:0.5" />
<polyline points=" 239,317 240,318 241,318 242,318 243,317 244,317 245,317 246,318 247,318 248,318 249,318 250,317 251,318 251,319 251,320 252,321 253,320 253,319 254,319 255,319 256,319 257,319 258,318 259,319 260,319 261,320 262,320 263,321 264,320 265,320 266,320 267,320 268,319 268,320 268,321 267,321 266,321 265,322 264,322 263,323 263,324 264,325 265,326 264,326 263,325 262,325 261,325 260,326 261,327 261,328 262,329 263,329 264,329 265,330 266,331 267,331 268,331 269,332 270,332 271,331 272,330 271,329 270,329 269,328 268,328 267,327 268,327 269,327 270,326 271,326 272,326 273,326 272,327 272,328 272,329 272,330 273,331 274,330 275,330 275,331 276,332 277,332 278,331 279,330 279,331 278,331 277,332 276,332 275,333 276,334 277,334 278,335 279,335 280,335 279,335 278,336 279,337 280,338 281,338 282,338 283,338 284,338 285,338 286,339 287,339 288,339 289,339 290,340 291,340 292,341 292,342 293,343 294,343 295,343 295,344 295,345 295,346 295,347 296,348 297,347 298,346 299,346 300,346 301,346 302,346 303,347 304,347 305,348 306,349 307,350 308,350 309,350 309,351 309,352 308,352 307,353 306,354 307,355 308,355 309,356 310,357 311,357 312,357 313,358 312,358 311,358 310,358 310,357 309,356 308,355 307,356 306,357 306,358 307,359 308,360 309,360 310,361 311,361 312,362 313,362 314,362 315,362 316,363 317,362 317,363 318,364 319,364 320,364 321,364 322,365 322,366 323,367 324,367 325,367 324,367 323,367 322,367 321,367 320,366 319,366 318,365 317,366 317,367 317,368 317,369 317,370 317,371 316,370 316,369 315,368 314,368 313,367 312,367 311,368 310,368 309,368 309,367 309,366 308,365 307,365 306,365 305,364 304,364 303,364 302,364 301,364 300,363 299,364 298,363 297,364 296,363 295,364 294,364 293,364 292,363 291,363 290,363 289,362 288,362 287,362 286,362 285,362 284,362 283,361 282,361 281,360 280,360 279,359 278,358 277,357 276,357 275,357 274,357 273,357 272,356 271,356 270,355 269,355 268,354 267,354 266,354 265,354 264,354 263,354 262,354 261,353 260,353 259,352 258,352 257,352 256,351 255,351 254,351 253,350 252,350 251,349 250,349 249,349 248,348 247,348 246,348 245,347 244,347 243,346 242,345 241,345 240,344 239,343 238,343 237,342 236,342 235,342 236,341 237,340 238,339 239,339 240,340 241,340 242,340 243,340 244,340 245,340 246,340 247,340 248,339 248,338 248,337 247,336 246,336 245,336 244,336 243,336 242,336 241,335 240,335 239,335 238,334 237,334 237,333 237,332 236,331 235,330 234,330 233,330 232,330 231,329 230,328 229,329 228,328 227,328 226,328 225,328 224,327 223,327 222,327 222,326 223,326 224,326 225,326 226,325 226,324 225,323 224,323 225,322 225,321 224,320 223,320 222,319 221,319 220,320 219,321 219,322 219,323 218,324 219,325 220,326 219,325 218,325 217,326 216,326 215,325 214,325 213,325 212,325 211,324 210,325 209,325 208,325 207,325 206,324 205,324 204,324 203,324 202,324 201,323 200,323 199,323 198,323 197,323 196,322 195,322 194,322 195,322 196,322 197,322 198,322 199,322 200,322 201,322 202,322 203,322 204,322 205,322 206,322 207,321 208,321 209,321 210,321 211,320 212,320 213,320 214,320 215,319 216,319 217,319 218,319 219,319 220,319 221,319 222,319 223,319 224,319 225,319 226,319 227,318 228,318 229,319 230,319 231,319 232,319 233,319 234,319 235,319 236,319 237,319 238,318 239,317 " style="fill:None; stroke:red; stroke-width:0.5" />
<polyline points=" 40,328 41,328 42,328 43,328 44,328 44,329 45,330 46,331 47,330 48,329 47,328 46,328 47,328 48,328 49,328 50,328 49,329 48,330 49,331 50,331 51,331 52,331 53,331 54,331 55,331 56,330 57,330 58,331 59,331 60,331 61,331 62,330 63,329 62,328 63,328 64,328 65,328 64,329 64,330 64,331 65,332 66,332 67,332 68,332 69,332 70,332 71,333 72,333 73,333 74,332 75,332 76,332 77,332 78,332 79,332 78,332 77,332 76,333 75,333 74,333 73,333 72,333 71,333 70,333 69,333 68,333 67,333 66,333 65,333 64,334 64,333 63,332 62,332 61,332 60,332 59,332 58,333 57,333 56,333 55,334 55,335 55,336 56,337 55,338 55,339 56,340 57,340 58,339 59,339 60,339 61,338 61,337 60,336 59,335 60,335 60,336 61,337 62,337 63,336 63,337 64,338 65,338 66,338 67,338 68,338 69,338 70,338 71,338 72,339 73,339 74,339 75,339 76,339 77,339 78,339 79,339 80,339 81,339 82,339 83,338 84,338 85,338 86,337 87,336 87,337 87,338 88,339 89,339 90,339 91,339 92,340 93,340 94,340 95,340 96,340 97,340 98,341 99,341 100,341 101,342 102,342 103,343 104,343 105,344 106,344 107,344 108,344 109,344 110,344 111,344 112,344 113,344 114,344 115,344 116,344 117,344 118,345 119,345 120,345 121,345 122,345 123,345 124,345 125,345 126,345 127,346 128,346 129,346 130,346 131,346 132,346 133,347 134,347 135,347 136,347 137,347 138,347 139,347 140,347 141,348 142,348 143,348 144,348 145,349 146,349 147,349 148,349 149,349 150,349 149,349 148,350 148,351 147,351 146,352 147,353 148,354 149,354 150,355 151,356 152,356 153,356 154,355 155,355 156,355 157,354 156,353 155,352 154,351 153,351 152,351 152,350 153,350 154,350 155,350 156,350 157,350 158,350 159,350 160,351 161,351 162,351 163,351 164,350 165,351 166,351 167,351 168,352 168,353 169,354 170,355 171,355 172,354 172,353 171,352 172,353 173,353 174,353 175,353 176,354 177,354 178,354 179,354 180,354 181,355 182,355 183,355 184,355 185,355 186,355 187,355 188,355 189,355 190,355 191,355 192,355 193,354 194,354 195,353 195,352 196,351 196,350 196,351 197,352 198,352 199,351 199,350 198,349 199,350 200,350 201,349 201,350 200,350 199,351 198,352 198,353 198,354 198,355 198,356 198,357 199,358 198,359 198,360 198,361 198,362 198,363 198,364 199,365 199,366 198,366 197,365 196,365 195,365 194,365 193,365 192,366 191,366 190,366 189,365 189,364 190,365 191,364 191,363 191,362 190,361 189,361 188,361 187,360 186,361 185,362 184,363 184,364 184,365 184,366 185,367 186,368 187,368 188,368 189,368 190,368 191,368 192,368 193,369 194,369 195,370 196,371 197,371 198,371 198,372 197,372 196,372 195,372 194,372 193,372 192,373 192,374 193,375 194,376 195,376 196,375 197,375 198,374 199,374 200,374 201,374 202,374 203,374 204,375 205,376 206,376 207,376 208,375 209,375 210,375 210,376 209,376 208,376 207,377 207,378 206,378 205,378 204,378 203,378 202,378 201,378 200,378 199,378 198,377 197,377 196,377 195,377 194,376 193,376 192,376 191,376 190,375 189,375 188,374 187,374 186,375 186,376 186,377 187,378 188,378 189,378 190,378 189,378 188,378 187,378 186,378 185,378 184,378 183,378 182,378 181,378 180,378 179,377 178,377 177,378 176,378 175,378 174,378 173,378 172,378 172,377 171,376 170,376 169,375 168,375 167,376 166,376 165,375 164,375 163,376 163,377 163,378 162,378 161,378 160,378 159,378 158,378 157,378 156,378 156,377 157,376 158,375 157,374 156,374 155,374 154,375 153,376 152,376 151,376 150,375 149,375 148,375 147,374 146,374 145,373 144,373 143,372 142,372 141,372 140,371 139,371 138,371 137,371 136,371 135,371 134,371 133,371 132,371 131,371 130,372 131,373 132,374 133,373 134,374 135,374 136,374 136,375 135,376 135,377 136,378 135,378 134,378 133,378 132,378 131,378 130,378 129,378 128,378 127,378 126,377 125,376 124,376 123,376 122,376 121,376 120,375 119,375 118,375 117,375 116,375 115,375 114,375 113,375 112,375 111,375 110,375 109,376 108,377 108,378 107,378 106,378 105,378 104,378 103,378 102,378 101,378 100,378 99,378 98,378 97,378 96,378 95,378 94,378 93,378 92,378 91,378 90,378 89,378 88,378 87,378 86,378 85,378 84,378 83,378 82,378 81,378 80,378 79,378 78,377 77,377 76,377 75,377 74,376 73,376 72,376 71,376 70,375 69,375 68,375 67,375 66,374 65,373 64,373 63,373 62,373 61,373 60,373 59,373 58,372 57,372 56,372 55,371 54,371 53,371 52,371 51,371 50,371 49,370 48,370 47,370 46,370 45,370 44,369 43,369 42,369 41,369 40,369 39,369 38,369 37,368 36,368 35,368 34,368 33,368 32,368 31,368 30,367 31,366 31,365 30,364 29,364 28,364 27,364 26,364 25,364 24,364 23,363 22,363 21,363 20,363 19,363 18,363 17,363 16,363 15,362 14,362 13,362 12,362 11,362 10,362 9,362 8,362 7,362 6,361 5,361 4,361 3,361 2,361 1,361 2,361 3,361 4,360 3,359 3,358 4,359 5,360 6,361 7,361 8,361 9,361 10,361 11,362 12,362 13,362 14,361 15,361 16,361 17,360 16,359 15,358 14,358 13,358 12,358 11,357 10,357 9,357 8,357 7,357 6,357 5,357 4,356 3,356 2,356 1,356 1,355 2,356 3,356 4,356 5,355 5,354 4,353 3,353 4,353 5,353 6,353 7,353 8,353 9,353 10,353 11,354 12,354 13,354 14,354 15,354 16,354 17,354 18,354 19,354 20,354 21,354 22,355 23,355 24,355 25,355 26,355 27,355 28,355 29,355 30,355 31,355 32,356 33,356 34,356 35,356 36,356 35,356 34,356 33,356 32,356 31,357 32,358 33,358 34,358 35,358 36,358 35,359 35,360 36,361 37,361 36,361 35,361 34,360 33,360 32,360 32,359 31,358 30,358 29,358 28,359 29,360 28,360 27,360 26,360 25,359 24,359 23,359 22,359 21,360 22,361 23,362 24,362 25,363 26,363 27,363 28,363 29,363 30,363 31,363 32,363 33,363 34,364 35,363 36,363 37,364 38,364 39,363 39,362 39,361 39,360 39,361 39,362 40,363 41,363 42,363 43,363 44,363 45,363 46,363 47,364 48,363 49,362 48,361 47,360 46,360 45,360 44,359 43,359 42,359 42,358 43,359 44,359 45,360 46,360 47,360 48,360 49,360 50,361 51,361 52,361 53,361 54,360 55,360 56,360 57,360 58,360 59,359 59,358 58,357 57,357 56,356 55,356 54,356 53,355 52,355 51,354 50,353 49,353 48,353 47,353 46,353 47,353 48,353 49,353 50,353 51,353 52,354 53,354 54,354 55,353 56,353 57,353 58,353 58,354 59,355 60,356 61,355 62,354 62,355 62,356 63,357 64,358 65,358 66,357 67,358 68,358 69,358 70,359 71,359 72,358 73,359 74,359 75,360 76,360 77,360 78,360 79,359 80,359 81,359 82,360 83,360 84,360 85,360 86,360 87,360 88,361 89,361 90,361 91,361 90,361 89,361 88,361 87,360 86,360 85,361 84,361 83,360 82,360 81,360 80,360 79,360 78,360 77,360 76,361 76,362 75,362 74,362 73,362 72,361 71,361 70,361 69,361 68,361 67,360 66,360 65,360 64,361 63,361 62,361 61,361 60,361 59,360 58,360 57,360 56,360 55,360 54,360 53,361 52,362 53,363 54,364 55,364 56,364 57,365 58,366 59,365 59,364 60,364 61,364 62,365 63,366 64,366 65,366 66,365 67,364 68,365 69,365 70,365 71,365 70,366 71,367 72,367 73,366 73,365 74,365 75,366 76,367 76,368 76,369 77,370 78,370 79,370 80,371 81,370 82,370 83,370 84,371 85,371 86,371 87,372 88,372 89,372 90,372 91,372 92,372 93,373 94,373 95,373 96,373 97,373 98,373 99,372 99,371 100,371 101,372 102,371 103,372 104,372 105,372 106,372 107,372 108,372 109,372 110,373 111,373 112,373 113,372 114,372 115,371 114,370 113,369 112,369 111,369 110,369 109,369 108,369 107,368 106,368 105,368 104,367 103,367 102,367 101,367 100,367 99,367 98,367 97,366 96,366 95,367 94,366 93,366 92,366 91,365 90,365 89,365 88,365 87,364 86,364 85,364 85,363 86,363 87,363 88,363 89,364 90,364 91,364 92,364 93,364 94,363 94,362 93,361 94,361 95,362 96,362 97,363 98,363 99,364 100,364 101,365 102,365 103,365 104,366 105,366 106,366 107,366 108,367 109,366 110,366 111,366 112,367 113,367 114,367 115,367 116,367 117,367 118,367 119,367 120,367 121,367 122,367 123,367 124,367 125,368 126,368 127,369 128,369 129,368 130,367 129,366 128,366 127,366 126,366 125,365 125,364 124,363 123,363 122,363 123,363 124,363 125,363 126,364 127,364 128,364 129,365 130,365 131,365 132,365 133,365 134,366 135,366 136,366 137,367 138,367 139,367 140,367 141,368 142,368 143,369 144,369 145,369 146,370 147,371 148,371 149,371 150,371 151,371 152,370 152,369 151,368 150,368 149,368 148,368 148,367 148,366 149,366 150,366 151,366 152,366 153,366 152,367 152,368 153,369 154,370 155,370 155,371 156,372 157,373 158,373 159,372 159,371 158,370 159,370 160,371 161,370 162,369 162,368 161,367 160,367 159,366 158,366 159,366 160,367 161,367 162,367 163,368 163,369 163,370 162,370 161,371 161,372 162,373 163,373 164,373 165,373 166,373 167,373 168,373 169,373 170,372 171,371 172,371 173,370 174,369 175,369 176,369 177,369 178,369 179,370 180,370 181,370 182,369 182,368 183,367 183,366 182,365 181,365 180,365 179,364 178,364 177,364 176,364 175,364 174,364 173,364 172,363 171,363 170,362 169,362 168,362 167,362 166,362 165,362 164,361 163,361 162,361 161,361 160,360 159,360 158,360 157,360 156,360 155,360 154,360 153,360 152,360 151,359 150,359 149,359 148,359 147,358 146,358 145,358 144,358 143,358 142,358 141,357 140,357 139,357 138,357 137,357 136,357 135,357 134,357 133,356 132,356 131,356 130,356 129,355 128,355 127,355 126,354 125,354 124,354 123,354 122,353 121,354 120,354 119,354 118,353 117,353 116,353 115,353 114,353 113,353 112,353 111,353 110,352 109,352 108,352 107,352 106,352 105,352 104,351 103,351 102,351 101,350 100,350 99,350 98,350 97,350 96,350 95,350 94,349 93,349 92,348 91,348 90,349 89,349 88,348 87,348 86,348 85,348 84,347 83,347 82,348 81,348 80,347 79,347 78,347 77,347 76,347 75,347 75,346 74,345 73,344 72,343 71,343 70,344 69,343 68,343 67,342 66,342 65,342 64,342 63,342 62,342 61,341 60,341 59,341 58,341 57,341 56,341 55,341 54,341 53,340 52,340 51,340 50,340 49,340 48,340 47,340 46,340 45,340 44,340 43,340 42,339 41,339 40,339 39,339 38,339 37,339 36,339 35,339 34,339 33,339 32,339 31,339 30,339 29,339 28,339 27,339 26,339 25,339 24,338 23,338 22,338 21,338 20,337 19,337 18,337 17,337 16,336 15,336 14,337 14,338 13,339 12,339 11,339 10,338 9,338 8,338 7,338 6,338 5,337 4,338 3,337 2,337 1,336 1,335 1,334 1,333 2,333 3,333 4,333 5,333 6,332 7,332 8,332 9,332 10,332 11,331 12,331 13,331 14,331 15,331 16,331 17,330 18,330 19,331 18,331 17,331 16,331 15,332 15,333 16,334 17,335 18,335 19,334 20,334 21,334 22,334 23,333 22,332 21,332 22,332 23,332 24,332 25,332 26,333 27,334 26,334 25,333 24,334 23,334 22,335 22,336 23,337 24,337 25,337 26,337 27,337 28,337 29,337 30,336 30,335 31,335 32,335 33,335 34,335 35,336 36,336 37,336 38,335 38,334 39,334 40,333 40,334 41,335 42,336 43,336 44,336 45,336 46,335 47,334 48,334 49,334 50,335 51,335 52,334 52,333 51,332 50,332 49,331 48,330 47,330 46,331 45,330 44,330 43,330 42,330 41,330 40,329 40,328 " style="fill:None; stroke:red; stroke-width:0.5" />
<polyline points=" 177,338 178,338 179,338 180,338 180,339 181,340 182,341 183,342 184,342 185,342 186,341 186,340 187,341 188,341 189,342 190,343 191,342 191,341 192,341 193,342 194,342 195,343 195,344 196,345 197,345 198,344 199,344 200,345 201,345 202,345 203,346 204,346 205,346 205,347 206,348 207,349 208,349 209,349 210,348 211,348 212,348 213,349 214,348 214,347 214,346 215,345 216,344 217,344 218,345 219,346 220,345 221,345 221,346 221,347 220,347 219,346 218,346 217,345 216,345 215,346 214,347 215,348 215,349 215,350 216,351 217,352 218,352 219,352 219,353 220,354 221,354 222,355 223,355 224,354 225,355 226,356 227,356 228,355 229,355 230,356 231,356 232,357 233,356 233,355 234,355 235,354 236,353 235,352 234,352 233,351 232,351 231,350 230,350 229,349 228,349 227,349 226,348 225,347 226,347 227,347 228,348 229,348 230,348 231,348 232,349 233,350 234,350 235,351 236,352 237,352 238,352 239,351 239,350 238,349 239,350 240,350 241,351 242,351 241,352 241,353 241,354 240,355 240,356 241,357 242,357 243,358 244,358 245,359 246,360 247,359 248,359 249,359 250,359 251,359 252,359 253,359 252,359 251,360 251,361 252,362 253,363 254,363 255,364 256,364 257,364 258,364 259,365 260,365 261,366 262,366 263,366 264,367 265,367 266,368 267,368 268,368 269,368 270,368 271,368 272,367 272,366 272,365 273,365 273,366 274,367 274,368 274,369 275,370 275,371 275,372 276,373 277,373 278,373 279,372 280,372 281,373 282,374 281,374 280,374 279,374 278,374 277,375 278,376 277,377 277,378 276,378 276,377 276,376 277,375 277,374 276,373 275,372 274,373 274,374 274,375 273,375 272,376 272,375 273,374 274,373 274,372 273,371 272,371 271,371 270,370 269,370 268,369 267,369 266,370 265,369 264,368 263,368 262,367 261,367 260,366 259,366 258,367 257,368 256,369 255,369 254,368 253,367 253,366 253,365 252,364 251,363 251,362 250,361 249,362 248,363 248,364 247,365 247,366 246,367 246,368 246,369 247,370 248,371 249,371 250,371 251,372 252,372 253,373 254,373 255,374 256,375 257,375 257,376 257,377 256,378 255,377 254,376 253,376 252,375 251,374 250,373 249,373 248,373 247,372 246,372 246,371 245,370 244,369 243,370 242,371 241,371 240,370 239,370 238,369 237,369 236,368 235,367 234,368 233,368 232,367 231,366 230,365 229,365 228,364 227,364 226,364 225,364 224,364 223,363 222,364 222,365 221,365 220,365 219,364 218,364 217,364 216,363 215,363 214,363 213,363 212,362 211,361 210,360 209,360 208,360 207,359 206,359 205,358 204,358 205,357 206,356 207,356 208,355 208,354 207,353 206,352 205,352 206,352 207,353 208,353 209,352 209,351 208,350 207,350 206,350 205,349 204,349 203,348 202,347 201,346 200,345 199,345 198,345 197,345 196,345 195,345 194,345 193,344 192,344 191,344 190,343 189,343 188,343 187,343 186,342 185,342 184,342 183,342 182,341 181,340 180,340 179,340 178,340 178,339 177,338 " style="fill:None; stroke:red; stroke-width:0.5" />
</svg>