<svg height="800" width="1200" xmlns="http://www.w3.org/2000/svg">
<polyline points=" 1,1 2,1 3,1 4,1 5,1 6,1 7,1 8,1 9,1 10,1 11,1 12,1 13,1 14,1 15,1 16,1 17,1 18,1 19,1 20,1 21,1 22,1 23,1 24,1 25,1 26,1 27,1 28,1 29,1 30,1 31,1 32,1 33,1 34,1 35,1 36,1 37,1 38,1 39,1 40,1 41,1 42,1 43,1 44,1 45,1 46,1 47,1 48,1 49,1 50,1 51,1 52,1 53,1 54,1 55,1 56,1 57,1 58,1 59,1 60,1 61,1 62,1 63,1 64,1 65,1 66,1 67,1 68,1 69,1 70,1 71,1 72,1 73,1 74,1 75,1 76,1 77,1 78,1 79,1 80,1 81,1 82,1 83,1 84,1 85,1 86,1 87,1 88,1 89,1 90,1 91,1 92,1 93,1 94,1 95,1 96,1 97,1 98,1 99,1 100,1 101,1 102,1 103,1 104,1 105,1 106,1 107,1 108,1 109,1 110,1 111,1 112,1 113,1 114,1 115,1 116,1 117,1 118,1 119,1 120,1 121,1 122,1 123,1 124,1 125,1 126,1 127,1 128,1 129,1 130,1 131,1 132,1 133,1 134,1 135,1 136,1 137,1 138,1 139,1 140,1 141,1 142,1 143,1 144,1 145,1 146,1 147,1 148,1 149,1 150,1 151,1 152,1 153,1 154,1 155,1 156,1 157,1 158,1 159,1 160,1 161,1 162,1 163,1 164,1 165,1 166,1 167,1 168,1 169,1 170,1 171,1 172,1 173,1 174,1 175,1 176,1 177,1 178,1 179,1 180,1 181,1 182,1 183,1 184,1 185,1 186,1 187,1 188,1 189,1 190,1 191,1 192,1 193,1 194,1 195,1 196,1 197,1 198,1 199,1 200,1 201,1 202,1 203,1 204,1 205,1 206,1 207,1 208,1 209,1 210,1 211,1 212,1 213,1 214,1 215,1 216,1 217,1 218,1 219,1 220,1 221,1 222,1 223,1 224,1 225,1 226,1 227,1 228,1 229,1 230,1 231,1 232,1 233,1 234,1 235,1 236,1 237,1 238,1 239,1 240,1 241,1 242,1 243,1 244,1 245,1 246,1 247,1 248,1 249,1 250,1 251,1 252,1 253,1 254,1 255,1 256,1 257,1 258,1 259,1 260,1 261,1 262,1 263,1 264,1 265,1 266,1 267,1 268,1 269,1 270,1 271,1 272,1 273,1 274,1 275,1 276,1 277,1 278,1 279,1 280,1 281,1 282,1 283,1 284,1 285,1 286,1 287,1 288,1 289,1 290,1 291,1 292,1 293,1 294,1 295,1 296,1 297,1 298,1 299,1 300,1 301,1 302,1 303,1 304,1 305,1 306,1 307,1 308,1 309,1 310,1 311,1 312,1 313,1 314,1 315,1 316,1 317,1 318,1 319,1 320,1 321,1 322,1 323,1 324,1 325,1 326,1 327,1 328,1 329,1 330,1 331,1 332,1 333,1 334,1 335,1 336,1 337,1 338,1 339,1 340,1 341,1 342,1 343,1 344,2 343,3 343,4 343,5 343,6 343,7 342,7 341,6 340,7 340,8 339,9 338,9 337,8 336,8 335,9 335,10 334,10 333,10 332,11 331,12 330,13 329,13 328,13 327,14 326,13 325,12 324,12 323,12 322,12 321,11 320,11 319,12 318,12 317,12 316,12 315,12 314,13 313,13 312,12 311,13 311,14 310,14 309,13 308,14 307,14 306,14 305,14 304,14 303,15 304,14 303,13 302,12 301,12 300,13 301,14 301,15 300,15 299,16 298,16 297,17 296,17 295,17 294,18 293,19 292,20 291,21 290,22 290,23 290,24 289,25 288,26 287,27 287,28 286,29 287,30 287,31 287,32 287,33 286,34 287,35 288,35 288,36 287,37 287,38 288,39 289,39 289,40 289,41 289,42 290,43 291,44 291,45 292,46 292,47 293,48 293,49 294,50 295,51 295,52 295,53 294,54 293,55 293,56 292,57 293,58 294,58 294,59 294,60 293,61 292,62 292,63 291,64 292,65 291,64 290,65 290,66 290,67 290,68 291,69 292,70 293,71 293,72 292,73 291,74 291,75 290,76 289,76 288,77 287,77 286,78 285,78 284,78 283,78 282,78 281,79 280,79 279,80 278,79 277,79 276,80 275,80 274,80 273,80 272,81 271,81 270,81 269,81 268,81 267,82 266,82 265,82 264,82 263,82 262,83 261,83 260,83 259,83 258,83 257,84 256,84 255,84 254,84 253,84 252,85 251,85 250,85 249,85 248,86 247,86 246,86 245,86 244,86 243,86 242,86 241,86 240,87 239,87 238,87 237,87 236,87 235,87 234,87 233,88 232,88 231,88 230,88 229,88 228,88 227,89 226,89 225,89 224,89 223,89 222,89 221,89 220,90 219,90 218,90 217,90 216,90 215,90 214,90 213,90 212,91 211,91 210,91 209,91 208,91 207,91 206,91 205,92 204,92 203,92 202,92 201,93 200,92 199,93 198,93 197,93 196,93 195,94 194,94 193,94 192,95 191,95 190,95 189,95 188,96 187,96 186,96 185,96 184,97 183,97 182,98 181,98 180,99 179,99 178,100 177,100 176,101 175,101 174,102 174,103 173,103 172,103 171,104 171,105 170,105 169,105 168,106 168,107 167,108 166,108 165,109 165,110 164,111 164,112 163,113 163,114 163,115 163,116 162,117 162,118 161,119 161,120 160,121 159,122 159,123 159,124 158,125 157,126 157,127 156,128 155,129 154,130 154,131 154,132 153,133 153,134 152,135 152,136 151,137 151,138 151,139 150,140 150,141 149,142 148,143 149,144 148,145 147,146 147,147 146,148 146,149 145,150 145,151 144,152 144,153 143,154 142,155 141,156 142,157 141,157 140,157 139,158 138,158 137,159 137,160 137,161 136,162 135,162 134,163 134,164 133,164 132,165 131,166 130,166 129,166 128,166 127,166 126,167 126,168 125,169 124,169 123,169 122,170 123,171 122,171 121,170 120,169 119,169 118,170 119,171 120,172 119,172 118,173 119,174 118,175 119,174 118,173 117,173 116,174 115,175 115,174 114,173 113,174 112,174 111,175 112,176 112,177 112,176 111,175 110,175 109,176 109,177 108,178 108,179 107,179 106,180 105,181 105,182 104,182 103,183 102,184 101,184 100,184 99,185 98,185 97,186 96,187 95,187 94,187 93,187 92,188 91,188 90,189 89,190 88,191 87,190 86,191 86,192 86,193 85,194 84,193 83,194 83,195 82,195 81,196 82,197 81,197 80,197 79,198 80,199 80,200 79,200 78,201 78,202 78,203 77,203 76,204 76,205 75,206 74,207 74,208 73,209 72,209 71,210 70,210 69,210 68,211 67,210 66,210 65,210 64,210 63,210 62,210 61,210 60,211 59,210 58,209 57,208 56,208 55,208 54,208 53,208 52,207 51,207 50,207 49,207 48,207 47,206 46,207 45,207 44,207 43,207 42,207 41,207 40,208 39,208 38,209 37,209 36,210 35,210 34,211 33,211 32,212 31,213 30,214 30,215 29,215 28,216 27,217 26,218 25,219 24,220 24,221 23,222 22,223 21,223 20,224 20,225 19,226 18,227 17,228 16,229 15,230 15,231 14,232 13,233 12,234 11,235 10,235 9,236 8,237 7,237 6,238 5,238 4,239 3,240 2,240 1,241 1,240 1,239 1,238 1,237 1,236 1,235 1,234 1,233 1,232 1,231 1,230 1,229 1,228 1,227 1,226 1,225 1,224 1,223 1,222 1,221 1,220 1,219 1,218 1,217 1,216 1,215 1,214 1,213 1,212 1,211 1,210 1,209 1,208 1,207 1,206 1,205 1,204 1,203 1,202 1,201 1,200 1,199 1,198 1,197 1,196 1,195 1,194 1,193 1,192 1,191 1,190 1,189 1,188 1,187 1,186 1,185 1,184 1,183 1,182 1,181 1,180 1,179 1,178 1,177 1,176 1,175 1,174 1,173 1,172 1,171 1,170 1,169 1,168 1,167 1,166 1,165 1,164 1,163 1,162 1,161 1,160 1,159 1,158 1,157 1,156 1,155 1,154 1,153 1,152 1,151 1,150 1,149 1,148 1,147 1,146 1,145 1,144 1,143 1,142 1,141 1,140 1,139 1,138 1,137 1,136 1,135 1,134 1,133 1,132 1,131 1,130 1,129 1,128 1,127 1,126 1,125 1,124 1,123 1,122 1,121 1,120 2,120 3,120 4,119 5,119 6,119 7,119 8,118 9,118 10,119 11,119 12,119 13,119 14,119 15,119 16,119 17,119 18,119 19,119 20,118 21,118 22,118 23,119 24,119 25,119 26,119 27,119 28,119 29,119 30,120 31,120 32,120 33,120 34,121 34,122 35,123 36,123 37,124 38,125 38,126 38,127 39,128 40,128 41,129 41,130 41,131 42,132 43,133 43,134 44,135 44,136 45,137 45,138 46,139 46,140 47,141 48,140 49,140 50,141 51,142 52,143 53,142 54,143 55,143 56,143 57,143 58,143 59,143 60,142 61,143 62,142 63,142 64,142 65,141 66,141 67,141 68,140 69,139 70,138 70,137 71,136 71,135 72,136 73,135 73,134 73,133 73,132 73,131 74,131 75,130 76,129 77,128 77,127 78,126 78,125 79,124 80,124 81,123 81,122 82,121 82,120 82,119 82,118 83,117 84,116 84,115 84,114 84,113 84,112 85,111 85,110 85,109 86,108 86,107 87,107 88,106 89,106 90,106 91,105 92,106 93,106 94,106 95,106 96,107 97,107 98,107 99,107 100,108 101,108 102,108 103,109 104,109 104,110 105,111 106,111 107,111 108,112 109,113 110,114 111,114 110,115 111,116 112,117 113,117 114,117 115,118 116,118 117,117 118,118 119,119 120,118 121,119 122,119 123,118 124,118 125,119 126,119 127,119 128,119 129,119 130,118 131,118 132,118 133,118 134,118 135,118 136,118 137,118 138,117 139,117 140,117 141,117 142,116 143,116 144,115 145,115 146,116 147,115 148,115 149,115 150,115 151,114 152,114 153,114 154,114 155,114 156,113 157,113 158,112 159,112 160,112 161,112 162,111 162,110 163,110 164,109 165,108 165,107 166,107 167,107 168,106 168,105 169,104 169,103 168,102 168,101 169,101 170,100 170,99 170,98 171,97 171,96 171,95 170,94 171,95 172,94 172,93 171,92 172,91 172,90 173,90 174,89 173,88 172,88 173,88 174,87 175,87 176,87 177,86 176,85 176,84 176,83 176,82 175,81 175,80 175,79 175,78 175,77 174,76 173,76 173,75 172,74 172,73 171,72 170,72 170,71 170,70 169,69 168,70 167,69 166,69 165,68 164,68 163,68 162,68 161,68 160,67 159,67 158,67 157,67 156,67 155,67 154,67 153,67 152,67 151,67 150,67 149,68 148,67 147,68 146,69 145,68 144,68 143,68 142,69 141,70 140,69 139,69 138,69 137,69 136,70 135,69 134,69 133,68 132,68 131,68 130,68 129,67 128,67 127,66 126,66 125,65 124,64 123,63 122,62 121,61 120,61 119,60 118,60 117,59 116,58 115,58 114,57 113,57 112,57 111,57 110,56 109,56 108,56 107,56 106,56 105,55 104,56 103,56 102,55 101,56 100,57 99,57 98,58 97,57 96,56 95,56 94,57 95,58 94,58 93,59 92,59 91,58 90,59 89,59 88,59 87,59 86,60 85,60 84,61 83,61 82,61 81,61 80,62 79,63 78,63 77,63 76,63 75,64 75,65 74,65 73,64 72,65 71,65 70,65 69,66 68,66 67,66 66,66 65,66 64,66 63,67 62,67 61,67 60,67 59,67 58,67 57,67 56,68 55,67 54,67 53,68 52,68 51,68 50,68 49,67 48,68 47,68 46,67 45,68 44,68 43,67 42,67 41,68 40,67 39,67 38,67 37,67 36,67 35,67 34,67 33,66 32,67 31,67 30,67 29,67 28,67 27,67 26,67 25,67 24,68 23,68 22,68 21,69 20,69 19,69 18,68 17,68 16,68 15,68 14,69 13,68 12,68 11,67 10,66 9,66 8,66 7,65 6,65 5,64 4,63 3,63 2,62 1,62 1,61 1,60 1,59 1,58 1,57 1,56 1,55 1,54 1,53 1,52 1,51 1,50 1,49 1,48 1,47 1,46 1,45 1,44 1,43 1,42 1,41 1,40 1,39 1,38 1,37 1,36 1,35 1,34 1,33 1,32 1,31 1,30 1,29 1,28 1,27 1,26 1,25 1,24 1,23 1,22 1,21 1,20 1,19 1,18 1,17 1,16 1,15 1,14 1,13 1,12 1,11 1,10 1,9 1,8 1,7 1,6 1,5 1,4 1,3 1,2 1,1 " style="fill:None; stroke:red; stroke-width:0.5" />
<polyline points=" 390,1 391,1 392,1 393,1 394,1 395,1 396,1 397,1 398,1 399,1 400,1 401,1 402,1 403,1 404,1 405,1 406,1 407,1 408,1 409,1 410,1 411,1 412,1 413,1 414,1 415,1 416,1 417,1 418,1 419,1 420,1 421,1 422,1 423,1 424,1 425,1 426,1 427,1 428,1 429,1 428,1 427,1 426,1 425,2 424,2 423,1 422,2 421,2 420,3 419,4 418,5 417,5 416,5 415,6 415,7 414,7 413,8 412,8 411,9 410,10 409,11 408,12 407,13 407,14 406,15 406,14 405,13 404,14 403,15 402,15 401,15 400,15 399,16 399,17 398,17 397,17 396,18 395,19 395,20 394,20 393,20 394,20 395,19 394,18 393,18 392,18 391,17 390,16 390,15 391,14 391,13 391,12 391,11 391,10 390,9 390,8 390,7 389,6 389,5 390,4 390,3 389,2 390,1 " style="fill:None; stroke:red; stroke-width:0.5" />
<polyline points=" 584,1 585,1 586,1 587,1 588,1 589,1 590,1 591,1 592,1 593,1 594,1 595,1 596,1 597,1 598,1 599,1 600,1 601,1 602,1 603,1 604,1 605,1 606,1 607,1 608,1 609,1 610,1 611,1 612,1 613,1 614,1 615,1 616,1 617,1 618,1 619,1 620,1 621,1 622,1 623,1 624,1 625,1 626,1 627,1 628,1 629,1 630,1 631,1 632,1 633,1 634,1 635,1 636,1 637,1 638,1 639,1 640,1 641,1 642,1 643,1 644,1 645,1 646,1 647,1 648,1 649,1 650,1 651,1 652,1 653,1 654,1 655,1 656,1 657,1 658,1 659,1 660,1 661,1 662,1 663,1 664,1 665,1 666,1 667,1 668,1 669,1 670,1 671,1 672,1 673,1 674,1 675,1 676,1 677,1 678,1 679,1 680,1 681,1 682,1 683,1 684,1 685,1 686,1 687,1 688,1 689,1 690,1 691,1 692,1 693,1 694,1 695,1 696,1 697,1 698,1 699,1 700,1 701,1 702,1 703,1 704,1 705,1 706,1 707,1 708,1 709,1 710,1 711,1 712,1 713,1 714,1 715,1 716,1 717,1 718,1 719,1 720,1 721,1 722,1 723,1 724,1 725,1 726,1 727,1 728,1 729,1 730,1 731,1 732,1 733,1 734,1 735,1 736,1 737,1 738,1 739,1 740,1 741,1 742,1 743,1 744,1 745,1 746,1 747,1 748,1 749,1 750,1 751,1 752,1 753,1 754,1 755,1 756,1 757,1 758,1 759,1 760,1 761,1 762,1 763,1 764,1 765,1 766,1 767,1 768,1 769,1 768,2 768,3 767,4 767,5 766,5 765,5 764,5 763,5 762,5 761,6 760,5 759,5 758,5 757,5 756,5 755,5 754,5 753,6 752,6 751,6 750,6 749,6 748,6 747,6 746,6 745,6 744,7 743,7 742,7 741,7 740,7 739,8 738,8 737,7 736,8 735,8 734,8 733,8 732,8 731,9 730,8 729,9 728,9 727,9 726,9 725,9 724,9 723,9 722,9 721,9 720,10 719,10 718,10 717,10 716,10 715,10 714,10 713,10 712,10 711,10 710,10 709,11 708,11 707,11 706,11 705,11 704,12 703,12 702,12 701,12 700,12 699,12 698,13 697,12 696,12 695,13 694,13 693,13 692,13 691,13 690,14 689,14 688,14 687,14 686,14 685,14 684,15 683,15 682,15 681,15 680,16 679,16 678,16 677,16 676,16 675,16 674,16 673,17 672,17 671,17 670,17 669,17 668,18 667,18 666,18 665,18 664,19 663,19 662,19 661,19 660,19 659,20 658,20 657,20 656,20 655,20 654,20 653,20 652,21 651,21 650,21 649,21 648,21 647,21 646,21 645,22 644,22 643,22 642,22 641,22 640,22 639,22 638,23 637,23 636,23 635,23 634,23 633,23 632,24 631,24 630,24 629,24 628,24 627,24 626,24 625,25 624,25 623,25 622,25 621,26 620,25 619,25 618,25 617,26 616,25 615,26 614,26 613,26 612,26 611,26 610,26 609,26 608,26 607,26 606,26 605,26 604,26 603,25 602,24 601,25 600,25 599,24 600,23 601,23 602,22 601,21 600,21 599,21 598,20 598,19 597,18 597,17 597,16 596,15 596,14 595,13 595,12 594,11 593,11 592,10 591,9 590,8 590,7 589,6 588,5 587,5 586,4 585,3 585,2 584,1 " style="fill:None; stroke:red; stroke-width:0.5" />
<polyline points=" 340,241 341,242 342,243 342,244 342,245 342,246 342,247 343,248 343,249 343,250 344,251 345,251 346,250 346,249 347,250 348,251 349,251 350,251 351,251 352,250 352,249 352,248 353,248 354,249 355,249 356,249 357,249 358,248 357,247 357,246 357,245 358,245 359,245 360,245 361,245 362,245 363,246 364,246 365,246 364,246 363,247 364,248 365,249 366,250 367,251 367,252 368,253 369,253 369,254 370,255 371,256 372,256 373,255 374,254 375,254 376,255 377,255 378,255 379,254 380,254 381,254 382,255 383,255 384,255 385,255 386,255 385,256 385,257 386,258 387,258 388,258 389,258 390,259 391,259 392,260 393,260 394,259 395,259 396,260 397,260 398,260 399,260 400,261 401,261 402,261 403,261 402,261 401,262 400,261 399,261 398,261 397,261 396,262 397,263 398,264 399,264 400,264 401,264 402,264 403,265 404,265 405,265 405,266 404,266 403,266 402,267 403,268 404,268 405,268 406,268 406,269 407,270 408,270 409,271 410,271 409,271 408,271 407,271 406,271 405,271 404,271 403,271 402,271 401,271 400,272 401,273 402,274 402,275 401,275 400,275 399,275 398,275 397,275 396,276 397,277 398,277 399,277 400,278 401,278 402,278 403,278 404,278 405,279 406,279 407,279 408,279 409,279 410,280 409,280 408,279 407,279 406,280 407,281 408,282 409,282 410,283 411,283 412,283 413,283 413,284 414,285 413,284 412,284 411,285 412,286 413,287 414,288 415,288 416,288 417,288 418,289 417,289 416,289 415,290 415,291 416,292 417,292 418,292 419,292 419,293 418,293 417,293 416,293 415,294 414,294 413,294 412,295 413,296 414,296 415,296 416,296 417,296 418,296 419,295 420,295 421,295 422,295 423,294 424,294 423,294 422,295 421,296 422,297 423,297 424,297 425,297 424,297 423,297 422,297 421,298 421,299 422,300 423,299 424,299 425,299 424,300 425,301 426,301 427,300 428,300 429,300 430,300 431,300 432,300 433,300 434,300 434,301 433,301 432,301 431,301 430,301 429,302 430,303 431,303 432,303 433,303 434,303 435,303 436,303 437,302 437,303 436,304 435,305 436,306 437,306 436,307 437,308 438,308 439,307 440,307 439,308 439,309 438,310 439,311 440,311 441,310 442,311 442,312 443,313 444,314 444,315 445,316 446,316 446,317 445,317 444,318 445,319 446,320 447,320 448,321 447,321 446,321 445,321 444,321 443,322 444,323 443,323 442,322 441,322 440,322 439,321 438,322 437,321 436,321 435,321 434,321 433,322 432,322 431,322 430,321 429,320 428,319 427,319 426,320 425,320 424,320 423,319 422,319 421,319 420,319 419,319 418,318 417,318 416,318 415,318 414,318 413,317 412,317 411,316 410,316 409,316 408,315 407,315 406,314 405,314 404,314 403,314 402,313 401,313 400,313 399,314 399,315 398,316 397,316 396,317 397,318 397,319 398,320 398,321 397,321 396,321 395,321 394,320 393,320 392,319 391,320 390,320 389,321 388,322 387,322 386,321 385,320 384,319 383,319 382,319 381,319 380,319 379,319 378,319 377,320 376,321 376,322 375,323 375,324 375,325 376,326 377,327 378,328 377,329 376,328 375,329 375,330 376,331 377,331 376,331 375,331 374,330 373,330 372,330 371,330 370,329 369,329 368,330 367,330 366,329 365,328 364,327 363,327 364,326 365,325 366,324 365,323 366,322 367,322 368,322 369,321 369,320 370,320 371,319 372,318 371,317 370,317 369,317 370,317 371,316 372,316 371,317 372,318 373,318 374,317 375,317 376,317 377,316 376,315 375,314 374,314 373,313 373,312 372,311 371,310 370,309 371,309 372,310 372,311 373,312 374,312 375,312 376,312 377,312 378,311 377,310 376,309 375,309 374,308 375,309 376,309 377,309 378,308 377,307 377,306 377,305 376,304 375,303 374,303 373,302 372,301 372,300 371,299 370,299 369,300 369,301 368,301 368,300 367,299 366,300 366,301 366,302 367,303 368,304 367,303 366,302 365,302 364,301 364,300 364,299 364,298 364,297 365,296 365,295 366,295 367,295 368,295 369,294 370,295 371,295 372,296 372,297 373,298 374,297 375,297 376,297 377,296 377,295 377,294 377,293 377,292 377,291 377,290 378,289 378,288 379,288 380,288 381,289 382,288 382,287 383,286 384,285 385,284 386,284 387,285 388,285 389,286 390,285 391,285 391,286 390,287 390,288 391,289 392,289 392,290 392,291 392,292 393,293 394,293 395,293 396,292 397,292 398,293 399,294 400,295 401,296 402,297 403,298 404,298 404,299 404,300 405,301 406,302 407,301 408,302 409,302 410,301 410,300 409,299 408,298 407,297 406,296 406,295 406,294 406,293 406,292 406,291 406,290 407,289 408,289 409,288 409,287 408,286 407,285 406,284 405,284 404,285 403,284 402,284 401,284 400,284 400,283 400,282 399,281 398,281 397,282 396,282 395,281 394,280 393,279 392,278 391,278 390,278 389,278 388,278 387,278 386,278 385,278 384,279 383,279 382,279 381,279 380,279 379,280 379,281 378,281 377,282 376,282 375,282 374,283 373,284 372,283 371,282 370,282 369,281 370,280 371,279 371,278 372,277 373,277 374,276 375,275 376,275 377,274 376,273 376,272 376,271 375,270 374,269 373,269 372,269 371,269 370,269 369,269 368,269 367,269 366,269 365,269 364,269 363,270 362,270 361,270 360,269 359,269 358,269 357,268 356,268 355,268 354,268 355,267 356,267 357,266 357,265 358,265 359,264 358,263 357,262 356,263 355,263 355,262 354,261 353,260 352,260 351,259 350,258 349,258 348,257 347,257 347,256 346,255 345,254 344,253 343,252 342,252 341,251 340,251 339,250 338,249 337,248 336,247 335,246 334,246 334,245 333,244 332,245 332,246 332,245 333,244 333,243 333,242 334,242 335,242 336,242 337,242 338,242 339,242 340,241 " style="fill:None; stroke:red; stroke-width:0.5" />
<polyline points=" 938,241 939,242 940,243 940,244 941,245 941,246 940,246 941,245 940,244 939,244 938,245 937,246 937,245 936,244 935,245 934,246 933,247 932,248 931,249 931,248 930,247 929,248 928,249 927,249 926,250 925,251 924,251 925,250 926,249 925,248 924,248 923,249 922,250 921,251 920,252 919,252 918,252 917,253 917,254 917,255 916,254 915,254 914,253 913,254 913,255 912,256 911,257 910,258 909,259 908,260 908,261 907,262 906,263 905,264 904,265 903,266 902,267 903,266 904,265 903,264 902,264 901,265 900,265 899,266 898,267 897,266 896,267 895,268 894,268 893,269 892,269 891,269 890,269 889,270 888,271 887,271 886,272 885,272 884,273 883,274 884,275 883,275 882,276 881,276 880,277 879,277 879,276 878,275 878,274 879,273 878,272 877,272 876,273 875,274 875,275 876,276 876,277 877,278 876,278 875,279 876,280 877,280 878,280 878,281 877,281 876,281 875,281 874,282 874,283 875,284 876,284 877,284 878,285 879,286 879,287 879,288 880,289 881,289 882,288 882,287 882,286 883,285 883,286 884,287 885,286 886,286 887,285 887,284 887,285 888,286 888,287 889,288 889,289 890,290 891,289 891,288 891,287 890,286 890,285 891,286 892,286 893,287 894,287 895,288 896,287 897,287 898,287 899,287 900,288 901,288 902,288 901,288 900,289 900,290 899,289 898,288 897,288 896,288 895,289 896,290 897,291 898,292 897,291 896,291 895,290 895,289 894,288 893,288 892,289 892,290 893,291 894,292 895,293 895,294 896,295 897,295 896,296 895,297 894,298 894,299 893,300 892,301 891,301 890,301 891,300 892,299 893,298 892,297 891,296 890,297 890,298 889,299 888,299 887,300 886,301 885,301 884,301 883,302 882,303 881,304 880,305 879,306 878,307 878,308 877,309 876,310 875,310 876,309 877,308 878,307 877,306 878,305 878,304 877,303 876,304 875,305 875,304 875,303 875,302 875,301 876,300 876,299 877,298 877,297 876,296 875,295 874,294 874,293 874,292 875,291 875,290 876,289 875,288 876,287 877,288 878,288 879,287 878,286 877,285 876,285 875,285 874,285 873,285 872,284 871,284 870,285 871,286 870,286 869,287 870,288 871,288 870,288 869,287 868,287 867,288 866,288 865,288 864,289 863,289 862,288 861,288 860,289 859,289 858,289 857,289 856,289 855,290 855,291 854,292 854,293 853,293 852,293 851,293 850,293 849,293 848,294 848,295 847,296 846,297 847,298 848,299 849,300 850,300 850,301 851,302 852,301 853,301 854,301 855,301 855,302 855,303 856,304 857,305 858,305 859,305 860,305 861,305 862,305 863,305 864,305 865,305 866,305 867,304 868,304 867,305 866,305 865,306 866,307 866,308 866,309 867,310 868,309 868,308 868,307 869,307 870,306 871,306 870,307 869,308 869,309 869,310 868,310 867,311 867,310 866,309 865,310 864,311 863,312 864,313 864,314 865,315 866,314 866,315 865,316 864,317 863,317 862,317 861,318 860,319 861,320 862,320 863,319 864,319 865,319 864,320 863,320 862,320 861,321 861,322 862,323 863,323 864,323 865,323 866,322 867,321 868,321 867,322 867,323 866,324 866,325 867,326 868,326 869,325 869,324 870,323 871,323 872,322 873,322 874,322 873,323 872,323 871,323 870,324 870,325 871,326 872,326 873,326 874,325 875,326 876,326 877,326 876,326 875,326 874,326 873,326 872,326 871,327 872,328 872,329 871,330 871,329 870,328 869,327 868,327 867,326 866,326 865,325 864,325 863,324 862,325 862,326 861,327 861,328 861,329 860,330 859,330 858,329 857,329 856,329 855,329 854,329 853,329 852,330 851,330 852,329 853,328 854,327 854,326 853,325 852,325 851,325 850,326 849,326 848,326 847,325 846,326 845,326 844,326 843,327 842,327 841,327 840,328 839,328 838,328 837,328 836,328 835,328 836,327 837,327 838,327 839,327 840,326 839,325 838,325 839,324 839,323 838,322 837,322 836,322 835,323 834,323 833,323 832,323 831,324 830,324 829,324 828,324 827,324 826,324 825,324 824,324 823,324 822,325 821,326 820,326 819,326 818,326 817,327 816,327 815,327 814,328 813,328 812,327 811,328 810,329 809,329 810,328 809,327 808,327 807,328 806,329 806,330 807,331 806,332 805,332 804,332 803,333 802,334 801,334 800,335 800,336 799,337 798,338 797,338 796,339 795,338 794,339 793,339 792,340 791,341 790,341 789,341 790,340 790,339 789,338 788,338 787,338 786,338 785,338 784,337 783,337 783,336 783,335 783,334 783,333 783,332 783,331 783,330 783,329 784,328 784,327 784,328 785,329 785,330 786,331 787,331 788,330 788,329 788,328 787,327 786,327 787,326 787,325 787,324 788,323 789,324 790,323 790,322 791,322 792,321 793,321 794,321 795,321 796,320 796,319 797,320 798,319 799,320 800,321 801,322 802,322 803,322 804,323 805,324 806,323 807,323 807,324 808,325 809,324 809,323 809,322 808,321 807,320 808,319 807,318 806,317 805,316 806,316 807,317 808,317 809,316 808,315 807,314 807,313 806,312 805,312 804,311 803,310 804,311 805,312 806,312 807,313 808,313 809,312 810,312 811,313 812,312 812,311 811,310 810,310 809,310 808,310 807,310 808,310 809,310 810,309 811,309 812,309 813,309 814,308 815,308 816,308 817,308 818,307 818,306 819,306 820,306 821,306 822,307 823,307 824,307 825,306 824,305 823,305 822,304 821,304 820,303 819,303 820,303 821,304 822,304 823,304 824,304 825,304 826,304 827,304 828,305 829,305 830,306 831,306 832,305 831,304 831,303 830,302 829,302 828,302 827,301 826,301 825,300 824,300 825,300 826,299 826,298 827,297 826,296 825,296 824,297 824,296 825,296 826,296 827,297 828,297 829,297 830,298 831,298 832,298 833,298 834,298 835,297 834,296 833,296 833,295 832,294 831,295 830,295 831,294 831,293 832,293 833,294 834,294 835,295 836,296 837,296 838,296 839,296 840,295 839,294 838,294 837,293 836,293 835,292 834,292 835,292 836,293 837,293 838,294 839,294 840,295 841,295 842,294 841,293 840,292 839,292 838,291 837,291 838,291 839,291 840,291 841,291 842,290 841,289 840,289 840,288 839,287 838,288 837,288 836,287 835,287 834,287 835,287 836,287 837,287 838,287 839,286 840,286 841,286 842,286 843,286 844,285 845,284 844,283 843,283 842,283 841,283 840,282 841,281 842,280 841,279 840,279 841,279 842,280 843,280 844,279 845,279 846,279 847,279 848,278 847,277 848,276 847,275 847,274 846,273 845,273 844,273 843,273 842,272 841,272 842,272 843,272 844,272 845,271 845,270 846,270 847,270 848,270 849,270 850,269 851,269 852,269 853,269 854,269 855,268 856,268 857,267 858,267 859,266 860,266 861,265 862,265 863,264 864,264 865,265 866,266 867,265 868,265 869,264 868,263 869,262 870,261 871,261 872,261 873,261 874,261 875,261 876,261 877,261 878,261 879,260 878,259 879,259 880,259 881,259 882,258 881,257 880,257 879,256 878,256 877,255 878,255 879,255 880,255 881,255 882,254 881,253 880,253 881,253 882,252 883,252 884,252 885,252 886,251 887,251 888,252 889,251 890,251 891,250 890,249 889,249 890,249 891,249 892,249 893,250 894,250 895,249 896,250 896,251 897,252 897,253 898,254 899,255 900,255 901,255 902,255 903,255 904,255 905,255 906,255 907,255 908,255 909,255 910,254 911,253 912,253 913,252 914,251 915,251 916,251 917,251 918,251 919,250 920,250 921,250 922,250 923,249 923,248 923,247 923,246 922,245 923,244 924,243 925,244 926,244 927,244 928,243 927,242 926,242 927,242 928,242 929,243 930,243 931,243 932,242 933,242 934,242 935,242 936,242 937,243 938,242 938,241 " style="fill:None; stroke:red; stroke-width:0.5" />
<polyline points=" 348,280 349,280 350,281 349,281 348,281 347,282 348,283 349,283 350,284 351,284 352,284 352,285 353,286 354,285 355,284 356,284 357,283 358,284 359,283 360,282 360,283 360,284 360,285 360,286 360,287 360,288 360,289 360,290 359,291 360,292 360,293 359,293 358,292 357,291 356,292 356,293 355,293 354,294 353,293 352,293 351,292 350,291 349,290 348,289 348,288 349,288 350,287 351,286 350,285 349,284 348,284 347,285 346,285 345,285 346,284 345,283 345,282 346,282 347,281 348,280 " style="fill:None; stroke:red; stroke-width:0.5" />
<polyline points=" 480,297 480,298 480,299 480,300 479,300 478,301 478,302 479,303 480,303 481,302 482,301 483,300 483,301 482,302 482,303 483,304 484,303 485,303 486,302 485,301 485,300 486,300 485,301 486,302 487,302 488,301 488,302 488,303 488,304 488,305 489,306 490,305 491,306 492,306 493,307 494,308 494,309 494,310 495,311 495,312 495,313 495,314 495,315 495,316 494,317 494,318 494,319 493,320 493,321 493,322 492,323 491,323 490,324 489,324 488,325 487,325 486,325 485,325 485,324 486,324 487,323 488,323 489,322 490,321 490,320 491,319 491,318 491,317 491,316 490,315 489,315 488,316 488,315 487,314 486,313 485,314 484,314 483,313 482,313 481,314 480,315 479,315 478,315 477,315 476,314 475,314 474,314 473,314 472,314 471,315 470,314 469,313 469,312 469,311 469,310 468,309 467,308 466,309 466,310 466,311 466,312 467,313 466,314 466,313 465,312 465,311 464,310 464,309 464,308 464,307 464,306 464,305 464,304 464,303 464,302 464,301 464,300 465,299 466,300 466,301 467,302 468,301 469,300 470,301 471,300 472,300 473,301 474,301 475,302 476,302 477,301 478,301 479,300 480,299 480,298 480,297 " style="fill:None; stroke:red; stroke-width:0.5" />
<polyline points=" 770,301 771,301 772,301 773,302 774,302 774,303 775,304 775,305 776,306 777,305 777,306 778,307 778,308 779,309 780,308 780,307 780,306 780,305 779,304 779,303 780,304 780,305 781,306 782,307 783,308 784,308 784,309 785,310 786,311 786,312 786,313 786,314 785,315 784,316 784,317 784,318 784,319 784,320 784,321 783,322 783,323 783,324 782,325 782,326 781,327 781,328 780,329 779,330 778,331 777,331 776,332 775,333 775,334 776,335 777,334 778,333 778,334 778,335 778,336 778,337 778,338 778,339 778,340 777,340 776,341 775,340 774,340 773,340 772,341 771,340 770,340 769,340 768,340 767,339 766,339 765,339 764,338 763,338 762,338 761,338 760,337 759,336 758,336 757,335 756,336 756,337 757,338 756,338 755,339 755,340 756,341 757,341 758,340 759,339 759,340 758,340 757,341 756,342 755,342 756,341 755,340 754,340 753,339 752,338 751,339 751,340 750,339 749,338 748,339 747,340 746,339 745,338 745,337 744,336 745,337 746,338 747,339 748,338 748,337 748,336 747,335 747,334 746,333 747,332 747,331 748,330 748,329 749,328 750,327 750,326 750,325 751,324 752,323 752,322 753,322 754,321 755,320 755,319 756,319 757,318 758,317 758,316 757,315 757,314 758,315 759,316 760,315 760,314 760,313 761,312 762,311 762,310 762,309 763,308 764,307 764,306 765,306 766,305 766,306 766,307 767,308 768,308 769,309 770,308 770,307 769,306 769,305 768,304 769,305 770,306 771,305 771,304 771,305 771,306 772,307 773,306 774,307 775,308 776,309 777,310 778,311 779,312 780,312 781,311 780,310 779,309 778,308 777,307 776,306 775,305 774,304 774,303 773,302 772,301 771,301 770,302 769,302 770,301 " style="fill:None; stroke:red; stroke-width:0.5" />
<polyline points=" 314,404 314,405 315,406 316,406 317,406 318,407 319,407 320,408 321,409 322,410 321,411 322,412 323,412 323,413 324,414 324,415 325,416 326,415 325,416 325,417 326,418 327,419 327,420 328,421 329,422 328,423 329,424 330,425 331,426 331,427 332,428 333,428 333,429 334,430 334,431 334,432 335,433 336,433 336,434 336,435 337,436 337,437 338,438 338,439 338,440 339,441 340,440 339,441 340,442 340,443 340,444 340,445 339,446 338,447 338,448 338,449 338,450 338,451 337,452 338,453 338,454 337,455 337,456 337,457 337,458 338,459 339,459 339,460 338,461 338,462 338,463 338,464 337,465 336,466 335,467 334,467 333,468 334,469 333,470 333,471 332,471 331,472 330,471 329,472 328,471 327,471 326,472 325,473 324,472 323,472 322,473 322,474 321,474 320,474 319,475 318,475 317,476 316,476 315,476 314,477 313,476 312,476 311,477 310,477 309,478 310,479 310,480 309,480 308,479 307,480 306,480 305,481 304,481 303,482 304,483 304,484 303,484 302,485 302,486 301,486 300,486 299,486 298,486 297,486 296,487 295,488 294,488 293,488 292,488 291,489 290,488 289,489 288,489 287,489 286,489 285,489 284,490 283,490 282,490 281,489 280,489 279,489 278,490 278,491 277,490 276,491 275,491 274,491 273,491 272,491 271,491 270,491 269,491 268,492 267,493 266,493 265,493 264,494 263,494 262,494 261,494 260,495 259,494 258,494 257,494 256,494 255,495 254,494 255,493 254,492 253,492 252,491 251,490 250,489 249,488 248,488 247,487 246,487 245,486 244,485 244,484 243,483 242,482 241,482 240,483 241,482 241,481 241,480 240,479 239,479 238,478 238,477 238,476 238,475 237,474 236,474 236,473 235,472 235,471 235,470 234,469 234,468 235,468 236,467 235,466 234,465 234,464 235,465 236,464 236,463 236,462 237,461 237,460 238,460 239,459 238,458 238,457 238,456 238,455 238,454 238,453 238,452 238,451 238,450 237,449 237,448 236,447 236,446 237,445 237,444 238,444 239,445 240,444 240,443 241,442 240,441 241,440 242,440 243,439 244,438 244,437 245,437 246,436 246,435 247,435 248,434 249,433 249,432 250,432 251,432 252,431 253,430 253,429 254,429 255,428 256,427 256,426 257,426 258,425 259,426 260,425 260,424 261,424 262,424 263,423 264,423 265,423 266,424 267,423 268,422 269,422 270,421 271,421 272,420 273,420 274,419 274,418 275,418 276,418 277,418 278,417 279,416 280,417 281,417 282,416 282,415 283,415 284,414 285,414 286,413 286,412 287,412 288,412 289,411 290,411 291,411 292,410 293,410 294,410 295,410 296,410 297,409 298,409 299,409 300,408 301,408 302,408 303,408 304,407 305,407 306,406 307,406 308,405 309,405 310,405 311,405 312,406 313,405 314,404 " style="fill:None; stroke:red; stroke-width:0.5" />
<polyline points=" 2,434 3,435 4,436 5,437 6,437 7,437 8,437 9,436 10,435 11,436 12,436 13,435 14,435 15,435 16,436 17,436 18,436 19,436 20,437 20,438 21,439 22,439 23,439 23,440 23,441 23,442 23,443 24,444 25,445 25,446 26,447 26,448 26,449 26,450 27,451 27,452 27,453 27,454 27,455 28,456 27,457 27,458 28,459 29,458 28,459 28,460 28,461 29,462 28,461 27,462 27,463 28,464 28,465 27,466 26,467 26,468 26,469 27,470 26,471 25,472 24,473 24,474 24,475 25,476 25,477 25,478 25,479 25,480 24,481 25,482 25,483 25,484 25,485 25,486 26,487 27,487 28,488 29,488 28,489 28,490 28,491 29,492 30,492 30,493 30,494 31,495 31,496 32,497 31,498 32,499 33,499 32,499 31,500 32,501 32,502 33,503 33,504 33,505 33,506 33,507 33,508 33,509 33,510 33,511 33,512 34,513 33,514 32,515 32,516 33,517 33,518 32,518 31,519 30,520 31,521 31,522 30,523 31,524 32,524 31,525 30,525 29,526 29,527 28,528 28,527 27,526 26,527 26,528 26,529 25,530 26,531 25,530 24,531 23,532 22,533 22,534 22,535 22,536 21,536 20,537 21,538 20,538 19,539 18,540 18,541 17,541 16,542 15,543 14,544 14,545 13,546 13,547 13,548 12,549 11,550 11,551 11,552 11,553 10,554 10,555 9,556 8,557 8,558 7,558 6,558 5,559 5,560 4,560 3,561 3,562 2,562 1,562 1,561 1,560 1,559 1,558 1,557 1,556 1,555 1,554 1,553 1,552 1,551 1,550 1,549 1,548 1,547 1,546 1,545 1,544 1,543 1,542 1,541 1,540 1,539 1,538 1,537 1,536 1,535 1,534 1,533 1,532 1,531 1,530 1,529 1,528 1,527 1,526 1,525 1,524 1,523 1,522 1,521 1,520 1,519 1,518 1,517 1,516 1,515 1,514 1,513 1,512 1,511 1,510 1,509 1,508 1,507 1,506 1,505 1,504 1,503 1,502 1,501 1,500 1,499 1,498 1,497 1,496 1,495 1,494 1,493 1,492 1,491 1,490 1,489 1,488 1,487 1,486 1,485 1,484 1,483 1,482 1,481 1,480 1,479 1,478 1,477 1,476 1,475 1,474 1,473 1,472 1,471 1,470 1,469 1,468 1,467 1,466 1,465 1,464 1,463 1,462 1,461 1,460 1,459 1,458 1,457 1,456 1,455 1,454 1,453 1,452 1,451 1,450 1,449 1,448 1,447 1,446 1,445 1,444 1,443 1,442 1,441 1,440 1,439 1,438 1,437 1,436 1,435 2,434 " style="fill:None; stroke:red; stroke-width:0.5" />
<polyline points=" 1065,453 1066,453 1067,453 1068,453 1069,453 1070,453 1071,454 1072,455 1073,455 1074,456 1075,457 1076,458 1077,459 1078,459 1079,460 1080,460 1081,460 1082,461 1083,462 1084,462 1085,463 1086,464 1087,465 1088,466 1089,466 1089,467 1089,468 1090,469 1091,469 1091,470 1092,471 1091,472 1092,473 1093,473 1094,473 1095,473 1094,474 1095,475 1096,475 1095,476 1095,477 1096,478 1095,479 1095,480 1094,481 1094,482 1093,482 1092,482 1091,483 1092,484 1093,484 1093,485 1092,485 1091,486 1091,487 1091,488 1090,488 1089,489 1089,490 1088,491 1089,490 1089,489 1090,488 1090,487 1089,486 1088,487 1087,488 1086,489 1086,490 1085,491 1084,492 1083,492 1082,491 1081,492 1081,493 1081,494 1080,495 1081,496 1082,497 1083,496 1083,497 1082,497 1081,498 1080,499 1081,500 1082,501 1082,502 1082,501 1081,500 1080,501 1079,501 1078,502 1079,503 1080,503 1079,504 1080,505 1081,506 1082,506 1083,505 1083,504 1084,503 1083,504 1083,505 1084,506 1085,506 1085,507 1085,508 1085,509 1085,510 1086,511 1087,510 1088,509 1087,508 1088,509 1089,510 1090,510 1091,509 1090,508 1091,507 1092,506 1092,505 1093,505 1094,504 1095,505 1094,506 1094,507 1094,508 1095,509 1096,508 1097,507 1098,506 1099,505 1099,506 1100,507 1100,508 1100,509 1100,510 1099,511 1100,512 1101,512 1102,511 1103,512 1104,512 1105,512 1106,511 1107,512 1108,511 1108,510 1109,509 1110,508 1110,507 1110,506 1111,505 1112,504 1113,505 1114,505 1115,506 1116,506 1117,506 1118,506 1119,506 1120,506 1121,506 1121,507 1121,508 1122,509 1123,508 1124,508 1125,508 1126,507 1125,506 1126,506 1127,505 1127,504 1128,504 1129,504 1130,503 1130,502 1131,502 1132,502 1133,502 1133,503 1134,504 1135,503 1136,503 1137,504 1137,505 1137,506 1138,507 1139,508 1139,509 1139,510 1140,511 1141,510 1142,510 1143,511 1144,511 1144,512 1145,513 1146,513 1147,513 1148,514 1147,515 1148,516 1149,516 1150,516 1149,517 1150,518 1151,518 1152,518 1152,519 1153,520 1154,521 1153,522 1153,523 1153,524 1153,525 1154,526 1154,527 1155,528 1156,528 1157,529 1158,529 1158,530 1158,531 1159,532 1160,533 1160,534 1160,535 1160,536 1160,537 1160,538 1160,539 1159,540 1158,541 1157,541 1156,542 1155,542 1154,543 1153,542 1152,543 1152,544 1151,543 1150,544 1150,545 1149,545 1148,546 1147,546 1146,547 1145,548 1144,548 1143,548 1142,549 1141,548 1140,549 1139,549 1138,549 1137,549 1136,549 1135,550 1135,551 1134,551 1133,552 1132,552 1131,553 1130,553 1129,553 1128,553 1127,553 1126,553 1125,553 1124,553 1123,553 1122,554 1121,554 1120,554 1119,554 1118,554 1117,555 1116,556 1115,556 1114,556 1113,555 1112,555 1111,556 1110,555 1109,555 1108,556 1107,557 1106,556 1105,556 1104,556 1103,555 1102,555 1101,555 1100,556 1099,555 1098,555 1097,554 1096,554 1095,555 1096,556 1095,556 1094,556 1093,557 1092,557 1091,558 1091,559 1090,559 1089,559 1088,560 1088,561 1087,562 1086,562 1085,562 1084,562 1083,562 1082,563 1082,564 1081,564 1080,564 1079,565 1078,565 1077,566 1076,566 1075,567 1074,567 1073,566 1072,566 1071,565 1071,564 1070,563 1069,564 1068,565 1067,564 1066,563 1065,564 1064,564 1063,563 1062,564 1061,564 1060,564 1059,564 1058,564 1057,563 1056,562 1056,561 1056,560 1055,559 1055,558 1055,557 1055,556 1055,555 1056,554 1056,553 1056,552 1056,551 1056,550 1056,549 1056,548 1056,547 1057,546 1056,545 1056,544 1057,543 1057,542 1057,541 1057,540 1056,539 1057,538 1057,537 1057,536 1057,535 1056,534 1055,534 1055,533 1055,532 1055,531 1055,530 1055,529 1055,528 1055,527 1055,526 1055,525 1056,524 1055,523 1055,522 1054,521 1054,520 1055,519 1055,518 1055,517 1055,516 1056,515 1056,514 1055,513 1055,512 1055,511 1054,510 1054,509 1055,508 1054,507 1054,506 1054,505 1054,504 1054,503 1053,502 1054,501 1054,500 1054,499 1054,498 1054,497 1054,496 1053,495 1054,494 1054,493 1055,492 1054,491 1053,491 1054,490 1054,489 1054,488 1054,487 1053,486 1054,485 1054,484 1054,483 1055,482 1054,481 1055,480 1055,479 1055,478 1054,477 1054,476 1055,475 1056,474 1055,473 1055,472 1055,471 1055,470 1056,469 1056,468 1056,467 1057,466 1057,465 1058,464 1058,463 1059,462 1059,461 1059,460 1060,460 1061,459 1062,458 1062,457 1063,456 1063,455 1064,454 1065,453 " style="fill:None; stroke:red; stroke-width:0.5" />
<polyline points=" 585,473 586,473 587,473 588,473 589,473 590,474 591,474 592,475 593,475 594,475 595,476 596,476 597,476 598,476 599,476 600,476 601,476 602,476 603,477 604,478 605,478 606,479 607,480 608,481 609,482 610,483 611,484 611,485 612,486 613,487 614,488 614,489 614,490 614,489 613,488 612,487 611,488 610,488 609,489 609,490 608,490 607,489 607,488 608,487 608,486 607,485 606,485 605,484 604,483 603,483 602,482 601,481 600,482 599,482 598,481 597,481 596,480 596,479 595,478 594,477 593,476 592,477 592,478 591,478 591,477 591,476 590,475 589,475 588,475 587,476 586,477 586,476 586,475 586,474 585,473 " style="fill:None; stroke:red; stroke-width:0.5" />
<polyline points=" 679,475 680,476 681,476 681,477 682,478 683,479 683,480 682,481 681,482 681,483 681,484 680,485 679,486 678,487 677,488 676,488 675,489 674,489 673,489 672,489 671,490 670,490 669,490 668,491 667,491 666,492 665,492 664,492 663,492 662,492 661,493 660,493 659,493 658,493 657,494 656,494 655,494 654,494 653,495 652,495 651,495 650,496 650,497 649,497 648,498 649,497 649,496 649,495 648,494 647,494 646,494 645,493 644,493 644,492 644,491 645,490 646,490 647,489 648,488 649,487 650,486 651,485 652,484 653,484 654,483 655,482 656,482 657,481 658,481 659,480 660,480 661,480 662,480 663,479 664,479 665,479 666,479 667,478 668,478 669,478 670,478 671,477 672,477 673,478 674,478 675,477 676,477 677,477 678,476 679,475 " style="fill:None; stroke:red; stroke-width:0.5" />
<polyline points=" 988,476 989,477 990,477 991,477 992,478 993,478 994,479 993,480 993,481 994,482 995,483 996,484 995,485 994,486 995,487 996,487 997,486 998,485 998,484 999,483 998,482 997,482 996,481 996,480 996,481 997,482 998,481 999,481 1000,481 1001,481 1002,481 1003,481 1004,480 1005,481 1006,480 1006,479 1007,479 1008,480 1008,481 1008,482 1008,483 1008,484 1007,484 1006,485 1006,486 1007,487 1007,488 1007,489 1007,490 1007,491 1008,492 1008,493 1008,494 1008,495 1007,496 1006,497 1006,498 1006,499 1006,500 1007,501 1007,502 1007,503 1007,504 1006,505 1006,506 1005,507 1005,508 1006,509 1007,508 1006,509 1006,510 1007,511 1006,512 1006,513 1006,514 1006,515 1007,516 1007,517 1007,518 1007,519 1007,520 1007,521 1007,522 1006,523 1006,524 1006,525 1006,526 1006,527 1006,528 1006,529 1005,530 1006,531 1005,532 1005,533 1006,534 1005,535 1005,536 1005,537 1006,538 1006,539 1005,540 1005,541 1005,542 1005,543 1005,544 1005,545 1005,546 1005,547 1005,548 1006,549 1006,550 1005,551 1005,552 1006,553 1005,554 1005,555 1005,556 1005,557 1005,558 1005,559 1004,560 1004,561 1003,561 1002,562 1001,562 1000,561 999,560 998,559 997,559 996,559 995,558 994,559 993,558 992,558 991,558 990,558 989,557 988,557 987,557 986,556 985,555 984,556 984,557 983,557 984,556 985,555 984,554 984,553 984,552 983,551 982,552 981,552 980,551 981,552 982,552 983,551 982,550 982,549 981,548 980,549 979,549 978,548 979,548 980,547 980,546 979,545 978,545 977,544 976,543 975,543 974,542 973,542 972,542 971,541 970,540 969,540 968,541 967,540 966,541 966,540 966,539 965,538 964,537 963,536 962,537 962,538 962,539 961,538 961,537 960,536 959,535 958,534 958,533 959,532 960,532 961,531 960,530 959,529 958,530 957,529 957,528 957,527 957,526 957,525 956,524 957,524 958,523 957,522 956,522 955,522 955,521 955,520 954,519 953,520 953,521 952,521 952,520 953,520 954,519 953,518 952,517 951,518 951,517 950,516 949,515 948,514 947,514 948,513 947,512 946,511 945,511 944,512 945,511 944,510 943,509 943,508 942,507 942,506 941,505 940,505 941,504 941,503 940,502 939,502 939,501 939,500 939,499 939,498 940,497 941,497 942,497 943,497 944,497 945,497 946,497 947,496 947,495 948,495 949,495 950,495 951,495 952,494 953,494 954,494 955,493 956,492 957,492 958,492 959,492 960,491 961,491 962,490 963,490 964,489 965,488 966,488 967,489 968,489 969,488 970,487 971,487 972,486 973,486 974,485 975,485 976,484 977,484 978,484 979,484 980,483 981,483 982,482 983,482 984,483 985,482 986,481 987,480 988,479 989,478 989,477 988,476 " style="fill:None; stroke:red; stroke-width:0.5" />
<polyline points=" 872,507 873,508 874,508 875,508 876,508 877,508 876,509 877,510 876,510 875,511 874,511 873,512 873,513 872,513 871,514 870,514 869,515 868,516 867,517 866,517 865,518 866,519 865,518 864,518 863,519 863,520 862,520 861,520 860,521 860,522 860,523 860,524 859,523 858,523 857,524 858,525 859,526 858,526 857,527 858,528 859,528 858,528 857,529 857,530 856,531 856,532 856,533 855,534 855,535 856,536 855,537 856,538 857,538 857,539 857,540 857,541 857,542 856,543 856,544 856,545 857,546 856,547 855,548 854,549 853,549 854,548 853,547 852,547 852,546 851,545 851,544 851,543 851,542 851,541 850,540 850,539 851,538 851,537 851,536 851,535 850,534 850,533 850,532 850,531 850,530 849,529 849,528 849,527 849,526 849,525 849,524 849,523 849,522 848,521 848,520 849,519 850,518 850,517 851,516 852,516 853,516 854,515 855,515 856,514 857,513 858,513 859,512 860,512 861,511 862,511 863,511 864,511 865,510 866,510 867,510 867,511 868,512 869,512 870,512 870,513 871,514 872,513 872,512 872,511 873,510 872,509 872,508 872,507 " style="fill:None; stroke:red; stroke-width:0.5" />
<polyline points=" 633,551 633,552 633,553 634,554 635,553 636,553 637,554 638,554 639,554 640,555 641,555 642,555 643,554 644,555 645,555 646,556 647,557 648,556 648,557 649,558 650,558 651,557 652,557 652,558 652,559 653,560 654,560 655,560 656,561 657,562 658,563 659,563 660,562 660,561 660,562 660,563 661,564 662,565 663,565 664,564 665,564 665,565 666,566 666,567 665,567 664,568 663,567 662,567 661,568 660,569 661,568 660,567 659,566 658,566 657,567 656,567 655,568 654,568 654,567 653,566 652,566 651,567 650,568 650,569 650,570 649,571 648,571 647,572 646,572 645,573 644,573 643,574 642,573 641,573 640,574 639,575 638,576 637,577 637,578 636,579 635,580 634,581 633,581 632,582 632,583 633,584 633,585 632,586 632,587 631,587 630,587 629,588 628,589 628,590 627,591 627,592 628,593 628,594 627,594 626,595 625,595 624,594 623,594 622,595 622,596 622,597 622,598 622,599 622,600 622,601 623,602 623,603 624,604 623,605 623,606 623,605 622,604 622,603 621,602 620,602 619,602 618,602 617,601 616,602 615,603 616,604 615,605 615,606 615,607 615,608 615,609 615,610 616,611 617,610 618,610 619,611 619,612 618,612 617,613 616,614 617,615 618,615 619,615 619,616 618,616 617,617 617,618 617,619 618,620 619,620 619,621 619,622 619,623 620,624 619,624 618,623 617,623 616,624 615,624 614,623 613,624 613,625 612,624 612,623 611,622 610,623 610,624 609,624 609,623 609,622 609,621 609,620 609,619 610,618 611,619 612,620 613,620 614,619 614,618 614,617 614,616 613,615 612,614 611,615 611,616 610,616 609,616 609,615 609,614 609,613 608,612 607,611 606,610 605,610 604,611 604,612 604,613 603,614 603,615 603,614 603,613 603,612 603,611 602,610 603,609 603,608 603,607 604,607 605,607 606,607 607,606 608,605 609,604 610,603 611,602 611,601 612,600 613,600 614,599 614,598 615,598 616,597 617,596 617,595 618,594 618,593 619,593 620,592 620,591 621,590 622,589 623,588 624,587 624,586 625,585 626,584 626,583 627,582 627,581 628,580 629,579 630,578 630,577 631,576 632,575 633,574 633,573 634,572 635,571 636,570 637,569 637,568 638,568 639,567 639,566 640,565 641,564 642,563 642,562 641,561 640,560 639,559 638,558 637,557 637,556 636,555 635,555 634,555 633,554 632,554 632,553 632,552 633,551 " style="fill:None; stroke:red; stroke-width:0.5" />
<polyline points=" 928,558 929,558 930,559 931,559 932,558 933,558 934,559 935,559 936,559 937,560 938,561 939,562 940,562 941,562 942,563 943,563 944,564 944,565 945,566 946,567 947,568 948,569 949,570 950,571 950,572 951,573 952,573 953,574 954,575 954,576 955,577 956,578 956,579 957,580 957,581 958,582 959,582 960,583 960,584 961,585 961,586 962,587 961,588 960,589 961,590 962,591 963,591 964,592 964,593 964,594 964,595 965,596 966,596 967,597 967,598 968,599 969,598 970,599 971,600 971,601 970,602 969,603 969,604 970,605 971,605 971,606 971,607 970,607 969,607 968,606 967,607 966,608 965,608 964,609 963,610 962,610 961,610 960,610 959,610 958,611 957,612 956,612 955,613 954,614 953,613 952,613 951,614 950,614 949,613 948,613 947,614 946,614 945,615 944,615 943,615 942,616 941,615 940,614 940,613 939,612 938,611 937,610 936,610 935,609 934,608 933,608 932,607 931,607 930,606 929,606 928,605 927,605 926,604 925,604 924,604 923,603 922,603 921,603 920,603 919,603 919,602 918,601 917,602 917,603 916,603 915,602 914,602 913,601 912,601 911,601 910,601 909,601 908,602 907,602 908,601 908,600 907,599 907,598 907,597 906,596 905,595 906,594 905,593 905,592 905,591 905,590 905,589 905,588 906,587 907,586 908,585 907,584 906,584 907,584 908,583 909,584 910,583 910,582 911,582 912,581 913,580 914,580 915,580 916,579 917,579 918,579 919,578 919,577 919,576 920,576 921,575 920,574 921,573 921,572 921,571 921,570 921,569 921,568 922,567 921,566 922,566 923,565 923,564 924,564 925,563 924,562 924,561 925,560 924,559 925,560 926,560 927,559 928,558 " style="fill:None; stroke:red; stroke-width:0.5" />
<polyline points=" 42,578 43,579 44,579 45,578 46,578 47,578 47,579 46,579 45,580 46,581 47,582 48,581 47,582 47,583 48,584 49,585 49,586 50,587 50,588 50,589 51,590 50,591 50,592 49,592 48,592 47,592 46,593 45,593 44,593 43,593 42,594 41,594 40,594 39,593 38,593 37,593 36,592 36,591 35,590 35,589 35,588 35,587 35,586 35,585 36,585 37,584 38,583 38,582 38,581 39,581 40,580 41,579 42,578 " style="fill:None; stroke:red; stroke-width:0.5" />
<polyline points=" 742,614 743,614 744,615 745,615 746,616 747,616 748,616 749,615 750,615 751,615 752,615 753,615 754,615 755,616 756,616 757,617 756,617 755,618 756,619 757,620 758,621 759,620 760,620 761,619 760,620 761,621 762,622 763,621 763,620 763,619 764,619 765,619 766,618 766,617 767,616 767,615 767,616 767,617 767,618 767,619 768,620 769,621 770,621 771,620 772,621 771,621 770,622 770,623 770,624 770,625 770,626 770,627 769,628 768,628 767,628 766,628 765,628 764,628 763,629 763,630 764,631 765,632 765,633 766,634 765,634 764,635 765,636 765,637 766,638 767,638 766,638 765,637 764,638 763,638 762,639 762,640 763,641 764,642 764,643 763,644 764,645 765,645 766,646 766,647 765,646 764,646 763,647 762,647 762,646 761,645 760,646 761,645 760,644 759,643 758,643 757,643 756,642 755,641 754,642 753,641 752,640 751,640 750,640 749,640 748,639 747,639 746,640 745,639 744,638 743,637 742,637 741,637 740,637 739,637 738,637 737,637 737,636 736,635 735,636 735,637 735,638 734,638 733,639 732,640 731,640 731,639 732,638 731,637 730,637 729,638 729,639 728,640 727,640 727,639 728,638 728,637 727,636 726,636 725,637 724,638 723,638 722,638 721,639 720,639 719,640 718,640 717,640 716,639 715,639 714,640 715,641 714,640 713,640 712,640 711,639 710,639 709,640 709,641 710,642 711,642 712,642 711,643 710,642 709,643 708,644 707,644 706,644 705,645 705,646 704,647 703,648 702,648 702,647 702,646 701,645 700,646 699,647 699,648 699,649 698,650 699,651 700,652 701,652 702,652 702,653 701,653 700,654 699,655 699,656 699,657 699,658 698,659 697,660 698,661 699,661 700,660 701,660 702,660 703,660 704,660 703,661 704,662 705,662 706,661 707,660 706,661 706,662 706,663 705,663 704,663 703,664 703,665 703,666 703,667 702,668 703,669 702,670 702,671 703,672 703,673 703,674 704,675 705,676 706,676 707,676 708,677 709,678 710,677 710,676 711,677 712,678 713,678 714,679 715,680 716,680 717,680 718,681 719,682 720,682 721,682 722,683 722,684 723,685 723,686 722,685 721,685 720,684 719,683 718,683 717,683 716,684 717,685 718,685 718,686 717,686 716,685 716,684 715,683 714,683 713,683 712,684 711,684 710,684 709,684 708,685 708,686 709,687 710,687 711,687 712,686 713,686 714,686 713,687 713,688 713,689 714,690 715,691 716,691 716,692 717,693 716,694 717,695 718,695 719,695 720,696 721,697 722,697 722,698 722,699 723,700 724,700 725,699 725,698 726,697 726,696 727,697 728,698 729,699 730,698 730,699 730,700 731,701 732,700 732,701 731,701 730,702 730,703 729,702 728,702 727,703 726,703 725,704 725,705 726,706 727,706 728,706 729,705 728,706 728,707 727,708 727,709 727,710 726,711 727,712 727,713 727,714 726,715 725,715 724,716 725,717 725,718 725,719 725,720 726,721 727,722 728,723 729,724 728,723 727,723 726,722 725,721 724,721 723,722 723,723 723,724 722,724 721,725 721,726 720,727 720,728 720,729 720,730 720,731 720,732 721,733 722,733 721,734 720,733 719,732 718,731 717,731 716,730 716,729 715,728 714,727 713,726 712,726 712,725 711,724 710,723 709,723 708,722 707,722 706,722 705,722 704,723 703,723 702,723 701,724 702,725 703,726 704,726 705,726 706,725 707,725 706,726 706,727 705,726 704,727 704,728 703,729 702,730 703,731 704,732 705,733 706,734 707,734 707,735 707,736 706,737 706,738 705,739 706,740 707,741 708,741 709,742 710,742 711,742 712,742 713,742 712,743 713,744 714,745 715,746 715,747 714,747 713,746 712,747 712,748 713,749 714,750 715,750 714,750 713,751 712,752 712,753 712,754 712,755 712,756 713,757 714,758 714,759 715,760 715,761 715,762 716,763 717,764 717,765 718,766 719,765 720,765 721,765 721,766 720,766 719,766 718,767 719,768 719,769 720,770 720,771 720,772 721,773 722,774 723,775 723,776 722,776 721,776 720,776 719,776 718,777 719,778 720,779 721,780 722,780 722,781 721,781 720,782 719,783 719,784 720,785 719,785 718,786 719,787 720,788 721,789 722,790 722,791 723,792 722,791 721,792 721,793 722,794 723,794 723,795 723,796 724,797 724,798 725,799 724,798 723,797 722,797 721,798 721,799 720,799 719,799 718,799 718,798 718,797 719,796 719,795 719,794 719,793 718,792 718,791 717,790 716,789 716,788 715,787 714,787 713,788 712,787 711,787 710,788 709,788 708,787 708,786 708,787 709,788 710,788 711,787 711,786 710,785 710,784 709,783 709,782 709,781 709,780 709,779 709,778 710,778 710,779 711,780 712,781 713,781 714,780 715,780 716,780 717,779 717,778 717,777 718,777 719,776 718,775 718,774 719,773 718,772 718,771 717,770 716,769 715,768 714,768 713,767 712,766 712,765 712,764 711,763 710,764 709,764 708,764 707,764 706,763 705,762 705,761 704,760 704,759 703,758 703,757 703,756 703,755 703,754 702,753 701,752 700,751 700,750 701,749 701,748 701,747 701,746 702,746 702,747 701,748 701,749 701,750 702,751 703,750 703,749 704,748 704,747 704,746 704,745 703,744 703,743 704,744 705,743 705,742 704,741 703,740 703,739 703,738 703,737 702,736 701,736 700,735 701,734 700,733 700,732 699,731 698,731 697,732 696,732 695,732 694,733 694,734 695,735 695,736 695,737 694,738 693,739 693,740 694,741 695,742 695,743 696,744 697,744 698,745 697,745 696,746 695,747 694,747 693,747 692,748 691,749 691,750 691,749 692,748 693,747 692,746 691,746 690,747 691,746 690,745 689,745 688,745 687,745 687,744 688,745 689,744 689,743 689,742 689,741 688,740 688,739 688,738 687,737 686,736 686,735 685,734 684,734 683,734 682,735 682,736 682,737 681,738 680,737 679,736 678,736 677,736 677,735 676,734 675,735 674,736 674,737 674,738 674,739 675,740 675,741 675,740 674,739 674,738 673,737 672,736 671,736 670,736 669,736 668,736 667,737 667,738 666,737 666,736 665,735 666,734 667,733 667,732 667,731 666,730 665,730 664,731 664,732 663,732 662,733 661,734 660,735 660,736 660,737 661,738 661,739 661,740 661,741 662,742 662,743 662,744 663,745 664,746 665,746 666,747 667,748 668,749 669,750 670,750 671,751 672,752 672,753 672,754 673,755 674,754 674,755 674,756 675,757 674,756 673,757 672,757 673,756 673,755 672,754 671,754 672,753 671,752 670,752 669,753 668,754 667,754 666,753 667,752 666,751 665,751 664,752 664,753 663,753 663,752 663,751 663,750 663,749 662,748 661,749 661,750 661,751 661,752 661,753 660,753 659,754 658,753 657,753 656,754 655,755 655,756 655,757 655,758 655,759 654,759 653,759 652,760 651,761 650,761 649,760 648,761 647,762 648,763 649,763 650,764 651,765 652,765 653,765 654,765 655,765 655,766 654,767 654,768 654,769 653,768 652,768 651,767 650,767 649,768 649,769 650,770 651,770 652,771 653,772 652,771 651,771 650,771 649,770 648,771 648,772 649,773 650,774 651,774 652,774 653,775 654,775 655,774 656,773 657,772 658,771 659,770 659,769 659,768 659,767 659,766 659,765 660,765 661,764 661,765 662,766 663,765 664,765 665,765 665,766 665,767 665,768 665,769 665,770 665,771 665,772 665,773 665,774 666,775 665,776 665,777 665,778 664,779 663,780 663,781 663,782 664,783 665,782 666,781 666,782 667,783 668,783 669,784 670,785 670,786 670,787 671,788 672,789 673,789 674,788 673,787 673,786 672,785 673,785 674,785 675,786 675,787 675,788 674,788 673,789 674,790 674,791 674,792 673,793 673,794 674,795 674,796 674,797 674,798 674,799 675,800 676,800 675,800 674,800 673,800 672,800 671,800 670,800 669,800 670,799 670,798 670,797 670,796 670,795 671,795 672,794 671,793 670,792 669,793 669,792 668,791 667,790 666,789 666,788 665,787 664,786 663,786 662,785 661,786 661,787 660,788 660,787 660,786 660,785 661,784 661,783 660,782 659,782 658,783 657,784 657,785 657,786 656,786 656,785 656,784 655,783 654,783 653,782 652,782 651,783 652,784 653,785 652,786 651,786 650,787 650,788 651,789 652,789 652,790 651,790 651,789 650,788 649,789 649,790 649,791 650,792 650,793 650,794 649,794 648,795 649,796 649,797 650,798 650,799 649,800 648,800 647,800 646,800 645,800 644,799 644,798 645,798 646,799 647,799 648,799 649,798 649,797 648,796 647,796 646,796 646,795 647,794 646,793 645,793 645,792 645,791 645,790 644,789 644,788 644,787 644,786 644,785 644,784 644,783 643,782 642,781 643,780 643,779 643,778 642,777 641,778 640,778 639,778 639,777 638,776 637,776 636,775 635,776 635,777 636,778 635,778 634,779 634,780 634,781 633,780 632,779 631,779 630,778 629,777 628,776 629,775 629,774 630,773 630,772 631,771 632,771 633,770 633,769 634,768 634,767 634,766 635,765 635,764 634,763 633,762 632,762 631,762 630,762 629,763 629,764 629,763 630,762 630,761 629,760 628,759 627,759 626,760 625,761 626,762 627,762 626,763 625,763 624,762 623,763 622,764 621,765 620,765 619,764 618,763 619,762 620,763 621,763 622,762 623,762 624,761 624,760 623,759 622,760 621,760 620,760 619,760 618,760 617,760 616,760 615,761 615,762 615,763 615,764 615,765 615,766 616,767 617,767 618,766 619,767 620,768 620,769 621,770 622,771 622,772 623,773 623,774 624,775 624,776 623,777 622,776 621,777 621,778 621,779 621,780 622,781 623,780 623,781 622,781 621,782 621,783 622,784 623,785 623,786 624,787 623,786 622,785 621,786 621,787 621,788 621,789 620,790 619,791 618,792 618,793 619,794 620,795 620,796 619,795 618,795 617,795 616,796 615,797 614,797 613,797 612,798 612,799 613,800 612,800 611,800 610,800 609,800 608,800 607,800 606,800 605,800 604,800 603,800 602,800 602,799 601,798 600,799 600,800 599,800 598,799 597,798 596,799 595,800 594,800 593,800 592,800 591,800 590,800 591,799 592,799 593,799 594,799 595,799 596,798 596,797 596,796 597,795 598,794 598,793 599,794 598,794 597,795 598,796 598,797 599,798 600,797 601,798 602,798 603,797 604,797 605,797 606,796 607,795 607,794 608,793 608,792 609,791 609,790 610,789 610,788 610,787 610,786 611,785 612,784 612,783 612,782 612,781 612,780 611,779 610,778 610,777 609,776 610,775 611,774 612,773 613,772 614,771 614,770 614,769 614,768 614,767 613,766 612,765 611,764 610,763 609,763 608,763 607,763 606,764 606,765 605,765 604,766 604,767 603,767 602,768 601,768 600,769 600,770 599,771 599,772 599,773 599,774 599,773 599,772 599,771 599,770 598,769 597,769 596,768 596,767 596,766 595,765 595,764 596,765 597,764 597,763 596,762 596,761 597,760 597,759 598,758 597,757 596,756 596,755 595,754 595,753 596,753 597,752 597,751 597,750 597,749 596,748 595,748 594,747 593,747 592,747 591,747 590,748 590,749 589,750 589,751 589,752 589,753 589,754 588,755 587,756 587,757 586,757 585,757 586,756 586,755 585,754 584,755 583,755 584,754 583,753 582,753 582,752 583,752 584,752 585,753 586,752 587,752 588,751 587,750 586,750 585,750 584,750 583,750 584,749 583,748 583,747 584,747 585,748 586,748 587,748 588,748 589,747 589,746 588,745 587,745 586,744 585,743 585,742 586,741 586,740 585,739 584,740 583,740 582,741 581,741 580,741 579,741 578,740 577,740 576,740 575,741 576,742 576,743 577,744 578,745 577,746 576,746 575,746 574,747 574,748 573,749 573,750 573,751 572,752 571,751 570,752 570,753 569,752 568,752 569,751 568,750 567,749 567,748 566,747 565,746 566,745 565,744 564,743 563,743 562,744 561,744 560,744 559,745 558,745 557,745 556,745 555,746 554,747 553,748 552,749 551,749 550,749 549,750 548,750 547,749 546,750 545,751 546,752 547,752 546,752 545,751 544,752 544,753 545,754 546,755 545,756 545,755 545,754 544,753 543,754 543,753 543,752 542,751 541,751 542,751 543,750 543,749 544,749 545,748 545,747 544,746 544,745 544,744 544,743 545,742 545,741 546,742 547,742 548,741 549,740 550,739 551,739 552,738 551,737 551,736 552,736 553,735 554,734 554,733 554,732 553,731 552,732 552,731 553,730 554,730 553,731 554,732 555,732 556,732 557,731 556,730 556,729 555,728 554,728 554,727 555,727 556,727 557,728 558,729 559,729 560,730 561,731 562,732 563,732 564,733 565,733 566,732 567,731 567,730 567,729 567,728 566,727 565,728 564,728 563,727 562,726 562,725 561,724 561,723 562,722 563,721 564,721 565,720 566,721 566,722 566,723 567,724 568,723 568,724 567,725 567,726 568,727 569,727 570,727 570,728 571,729 571,730 571,731 571,732 571,733 572,734 573,733 573,732 573,731 573,730 574,730 573,731 574,732 575,732 576,731 577,731 578,731 579,730 580,729 580,730 580,731 581,732 580,732 579,733 578,734 577,735 576,736 575,737 576,738 577,738 578,738 579,738 580,739 581,740 582,740 583,739 583,738 584,739 585,739 586,740 587,739 587,738 588,738 589,738 590,738 591,737 590,736 591,735 591,734 592,733 593,732 592,731 592,730 593,729 593,728 593,727 593,726 592,725 591,726 590,726 590,725 589,724 589,723 590,722 590,721 590,720 591,721 592,720 593,719 594,720 595,719 595,718 596,717 597,717 597,718 597,719 598,720 599,721 600,721 601,720 600,719 601,718 602,718 603,718 604,717 604,716 605,716 605,717 604,717 603,718 602,719 602,720 603,721 602,720 601,721 600,722 599,723 599,724 599,725 600,726 600,727 600,728 600,729 601,730 602,730 603,730 602,731 601,731 600,730 599,730 598,730 597,731 596,731 595,732 594,733 594,734 593,734 592,734 591,735 592,736 593,737 594,738 595,739 596,739 597,739 598,739 599,738 599,737 599,736 599,735 599,736 599,737 599,738 598,739 597,740 597,741 598,742 599,742 600,742 600,743 601,744 602,743 603,742 603,743 604,744 605,744 606,743 607,742 607,741 607,740 608,739 609,738 609,737 610,736 610,735 611,734 612,733 612,732 611,731 610,731 611,731 612,730 611,729 611,728 611,727 612,726 613,725 613,724 613,723 613,722 612,721 611,720 612,719 613,718 612,717 611,716 612,715 613,714 613,713 614,712 615,711 615,710 616,709 617,708 617,707 617,706 617,705 616,704 615,705 615,706 615,707 614,708 614,707 613,706 612,706 611,705 610,704 609,705 608,705 607,704 606,704 605,705 605,706 605,707 605,708 605,709 604,710 603,709 602,709 601,709 600,709 599,709 598,709 597,710 596,710 595,710 594,709 593,710 593,711 592,712 592,713 591,714 591,715 591,716 591,717 591,716 591,715 590,714 589,715 588,715 587,716 588,717 587,716 587,715 588,714 588,713 588,712 588,711 588,710 588,709 588,708 588,707 589,706 589,705 590,705 591,704 591,703 590,702 591,702 592,703 593,703 594,702 595,701 596,701 597,701 598,700 598,699 599,699 600,698 600,697 601,697 600,698 599,699 600,700 601,700 602,700 601,700 600,701 600,702 601,703 602,703 603,703 603,704 604,705 605,705 606,704 607,703 607,702 608,701 609,700 610,699 609,698 609,697 608,696 607,696 608,695 608,694 608,693 609,692 609,691 610,690 611,689 611,688 612,688 613,687 613,686 614,685 614,684 614,683 615,683 616,683 617,682 618,682 619,681 619,680 619,679 618,678 618,677 618,676 618,675 619,674 620,673 621,672 621,671 621,670 620,669 621,668 620,667 620,666 619,665 618,664 617,665 616,666 617,667 618,668 617,668 616,667 615,666 614,667 614,668 614,669 615,670 614,670 613,670 612,669 611,668 610,669 609,670 609,671 609,670 609,669 609,668 610,667 609,666 608,666 608,665 609,664 609,663 608,662 607,662 606,661 605,661 604,661 604,660 605,659 606,658 607,657 608,657 609,656 608,655 607,654 606,655 605,656 604,656 603,656 602,656 601,656 600,656 599,656 598,657 597,657 597,656 596,655 595,655 594,655 593,655 592,654 591,655 591,656 592,657 592,658 592,659 591,660 590,661 590,662 590,663 589,664 588,665 588,666 589,667 589,668 588,667 587,668 587,669 588,670 589,671 590,670 591,671 591,672 591,673 591,674 590,675 590,676 590,677 589,678 590,679 589,679 588,680 587,680 586,679 585,679 584,680 585,681 585,682 585,683 585,684 585,685 585,686 584,686 583,685 582,685 581,686 581,685 581,684 581,683 582,682 582,681 583,680 584,680 585,679 585,678 584,677 583,678 582,678 581,679 580,678 579,678 580,678 581,678 582,677 582,676 582,675 583,675 584,674 584,673 585,673 586,672 587,672 588,671 587,670 587,669 586,668 587,668 588,667 587,666 586,666 585,666 584,666 583,666 582,666 583,666 584,666 585,665 586,664 585,663 584,662 584,661 584,662 585,663 586,662 586,661 586,660 586,659 586,658 587,657 588,656 589,655 589,654 589,653 589,652 590,652 591,651 591,650 590,649 591,649 592,650 593,649 594,648 595,648 595,649 596,650 597,649 597,648 597,647 598,648 599,649 600,648 601,647 602,648 602,649 603,650 603,651 604,652 605,652 606,651 605,650 605,649 605,648 605,647 606,646 607,646 608,647 609,646 610,645 610,644 611,645 612,645 613,644 612,643 613,643 614,644 615,643 616,642 617,642 618,643 619,643 620,642 621,641 620,640 621,640 622,640 623,641 624,640 625,640 626,640 627,641 628,641 629,640 630,641 631,641 632,641 633,641 633,642 634,643 635,644 635,645 636,646 636,647 637,648 637,649 638,650 639,649 639,648 639,647 638,646 638,645 637,644 637,643 637,642 637,641 636,640 635,640 635,639 636,640 637,641 638,641 639,641 640,641 641,640 641,639 642,639 643,638 644,639 645,640 645,641 645,642 646,643 647,642 647,641 647,640 647,639 646,638 647,638 648,638 649,638 650,639 651,639 652,638 651,637 652,638 653,639 654,640 655,639 656,640 657,639 657,638 657,637 656,636 655,635 656,635 657,636 658,636 659,637 660,638 660,639 661,640 662,639 662,638 663,637 662,636 663,637 664,637 665,638 666,639 667,640 668,641 669,641 670,642 671,642 672,643 673,642 673,641 672,640 672,639 673,638 673,637 674,636 673,635 672,634 671,633 670,632 671,633 672,634 673,635 674,636 675,637 676,638 677,638 678,639 679,640 680,641 681,642 682,642 683,643 684,642 684,641 683,640 682,639 681,639 680,638 679,637 678,636 677,635 676,634 675,633 674,632 673,631 674,632 675,632 675,633 676,634 677,634 678,633 679,632 679,631 680,630 680,631 681,632 682,631 683,631 684,630 685,630 686,630 687,630 688,631 688,632 689,633 689,634 689,635 689,636 690,637 691,636 692,635 691,634 691,633 691,632 691,631 690,630 690,629 691,628 692,627 693,627 694,628 695,628 696,629 697,629 698,628 699,628 700,627 701,627 702,627 703,628 704,629 705,630 706,629 706,628 706,627 707,626 707,627 708,628 709,627 708,628 707,629 708,630 708,631 709,632 710,632 711,631 712,630 712,629 712,628 713,627 714,627 715,628 716,628 717,628 718,628 719,628 720,627 720,626 719,625 720,626 721,625 722,625 723,624 724,625 724,626 725,627 725,628 726,629 727,628 727,627 727,626 727,625 727,624 727,623 726,622 725,621 725,620 725,619 726,619 727,619 728,619 729,619 730,619 731,618 730,617 729,617 728,617 728,616 729,615 730,616 731,617 732,618 733,618 734,619 735,619 736,618 735,617 735,616 735,615 736,615 735,616 736,617 737,618 738,617 738,616 739,617 740,617 741,616 742,615 742,614 " style="fill:None; stroke:red; stroke-width:0.5" />
<polyline points=" 1174,656 1175,656 1176,656 1177,656 1178,656 1179,657 1180,657 1181,658 1180,658 1179,659 1180,660 1181,660 1181,661 1182,662 1182,663 1181,664 1181,665 1180,666 1180,667 1180,668 1179,669 1178,669 1177,669 1176,670 1175,669 1174,670 1173,670 1172,670 1171,670 1170,670 1169,670 1168,671 1167,671 1166,671 1165,671 1164,671 1163,671 1162,672 1161,672 1160,672 1159,673 1158,672 1157,672 1156,673 1155,672 1154,672 1153,673 1152,673 1151,673 1150,673 1149,673 1148,672 1147,672 1147,671 1147,670 1147,669 1148,668 1149,667 1150,667 1151,666 1152,665 1153,665 1154,664 1155,663 1156,662 1157,662 1158,663 1159,662 1159,661 1160,661 1161,660 1162,660 1163,660 1164,660 1165,660 1166,659 1167,659 1168,659 1169,658 1170,658 1171,658 1172,657 1173,657 1174,656 " style="fill:None; stroke:red; stroke-width:0.5" />
<polyline points=" 628,673 629,674 630,674 631,675 632,676 632,677 633,678 634,678 635,678 636,677 637,678 636,679 635,680 635,681 636,682 636,683 635,684 635,685 636,686 637,687 637,688 636,689 636,690 636,691 635,692 635,693 635,694 635,695 634,696 633,697 632,697 631,697 630,698 629,699 629,700 628,701 627,702 628,703 628,704 628,705 628,706 627,707 626,708 625,709 625,710 624,711 623,710 622,710 621,711 620,712 621,713 621,714 620,715 620,716 620,717 621,718 622,718 623,717 624,716 623,715 623,714 624,713 625,714 625,715 624,716 624,717 625,718 625,719 625,720 625,721 626,722 625,723 625,724 625,725 626,726 627,725 628,726 629,725 630,724 631,723 631,722 630,721 629,720 629,719 630,718 631,717 630,716 630,715 630,714 631,713 632,713 633,713 634,712 635,711 636,712 637,713 638,712 638,711 638,710 639,709 640,710 641,711 642,712 643,711 644,710 645,710 646,710 647,709 646,708 646,707 647,706 648,705 647,704 646,703 647,702 648,701 649,700 650,701 650,702 651,703 652,704 653,705 654,704 655,703 656,703 657,702 657,701 657,700 656,699 656,698 656,697 656,696 657,695 658,694 657,693 657,692 658,691 659,692 659,693 660,694 661,695 662,696 663,697 663,698 663,699 662,700 661,701 660,702 661,703 660,704 659,705 658,704 657,705 657,706 657,707 657,708 658,709 657,710 656,711 656,712 657,713 658,712 659,711 660,712 661,713 661,714 660,715 660,716 660,717 660,718 660,719 659,720 658,721 657,722 657,723 657,724 656,725 655,726 654,727 653,727 652,727 651,726 650,725 649,726 648,727 647,726 646,726 645,727 644,728 643,729 643,730 642,731 641,732 641,733 642,734 643,733 644,732 645,731 646,732 647,733 648,732 649,731 650,731 651,732 651,733 651,734 650,735 649,736 650,737 650,738 650,739 650,740 650,741 651,742 652,742 653,743 654,742 655,741 656,741 657,742 658,743 657,744 656,743 655,743 654,744 655,745 656,746 657,746 658,747 658,748 657,749 657,750 656,751 656,752 655,753 654,754 653,754 652,754 651,754 650,753 649,752 648,751 648,750 647,749 646,748 645,747 644,746 644,745 643,744 642,743 641,742 640,742 639,741 638,740 637,739 636,738 636,737 636,736 636,735 637,734 636,733 635,732 634,731 633,730 632,730 631,730 630,730 629,730 628,731 628,732 627,733 628,734 629,735 630,735 631,736 630,737 629,737 628,736 627,735 626,736 625,737 624,737 623,738 622,738 621,738 620,739 619,738 618,739 617,740 616,740 615,741 614,742 615,743 614,744 613,745 612,745 611,744 612,743 613,742 614,741 613,740 613,739 612,738 611,739 610,738 611,737 612,738 613,739 614,738 615,738 616,738 617,738 618,739 619,738 620,737 619,736 619,735 619,734 619,733 620,732 621,731 620,730 619,729 618,728 617,727 617,726 617,725 617,724 617,723 618,722 619,721 620,720 620,719 619,718 618,717 617,716 617,715 617,714 617,713 617,712 616,711 617,710 618,711 619,710 619,709 619,708 619,707 619,706 620,705 621,704 621,703 620,702 619,702 618,701 619,700 620,701 621,701 622,700 623,699 623,698 622,697 622,696 622,695 623,694 624,695 625,694 625,693 626,692 627,691 628,691 629,691 630,690 631,689 631,688 631,687 630,686 629,685 629,684 628,683 627,684 626,685 625,686 624,686 623,685 622,686 621,685 622,684 623,685 624,684 625,683 625,682 624,681 623,680 624,679 625,679 626,679 627,678 627,677 627,676 627,675 627,674 628,673 " style="fill:None; stroke:red; stroke-width:0.5" />
<polyline points=" 460,682 461,683 462,683 463,684 464,685 465,685 466,685 467,685 466,685 465,686 464,687 463,688 463,689 462,689 461,688 460,689 460,690 461,691 460,691 459,691 458,691 457,692 456,693 455,693 454,694 453,695 452,696 451,696 450,697 450,698 450,699 449,700 448,699 448,698 447,697 446,697 445,696 446,696 447,695 446,694 445,694 445,693 445,692 446,692 447,692 448,692 449,691 450,691 451,690 451,689 452,688 453,687 454,686 455,685 456,685 457,685 458,685 459,685 460,684 461,683 460,682 " style="fill:None; stroke:red; stroke-width:0.5" />
<polyline points=" 574,689 574,690 574,691 574,692 573,693 573,694 574,695 574,696 574,697 575,698 575,699 574,700 574,701 574,702 574,703 574,704 573,704 572,704 571,705 570,705 569,706 568,707 568,708 567,709 566,709 565,710 566,711 567,712 568,713 567,713 566,712 566,711 565,710 564,710 563,709 562,709 561,710 561,711 560,711 561,710 561,709 561,708 560,707 560,706 561,705 561,704 562,704 563,703 564,702 564,701 563,700 562,699 561,699 560,699 560,698 559,697 558,698 558,697 558,696 559,696 560,695 559,694 560,695 561,695 562,694 562,693 563,692 562,691 561,691 560,692 561,691 562,690 562,691 563,692 564,692 565,691 566,690 567,691 568,692 569,693 570,692 571,691 572,691 573,690 574,689 " style="fill:None; stroke:red; stroke-width:0.5" />
<polyline points=" 684,691 685,692 686,692 687,692 688,692 689,692 690,692 691,693 692,694 691,695 691,696 692,697 693,696 694,695 695,695 696,694 697,695 698,695 699,695 700,694 700,693 701,692 702,693 702,694 702,695 701,696 701,697 702,698 703,699 704,698 705,699 706,700 706,701 707,702 707,703 708,704 709,705 710,705 711,706 712,705 713,704 714,704 715,705 714,706 714,707 715,708 716,709 716,710 717,711 717,712 717,713 717,714 717,715 716,716 715,716 714,717 713,716 712,716 711,715 710,714 710,713 709,712 708,712 707,712 706,711 705,710 704,709 705,708 705,707 704,706 703,705 703,704 704,703 704,702 704,701 703,700 702,701 701,702 700,702 699,702 698,702 697,703 698,704 697,705 696,705 695,706 694,705 693,706 693,707 694,708 693,709 692,708 691,707 690,706 689,706 688,706 687,706 686,707 685,707 684,707 683,707 682,707 681,706 680,705 679,704 678,703 678,702 678,701 677,700 678,699 679,698 680,697 681,697 682,697 683,698 684,699 685,699 686,698 687,697 688,696 689,696 690,695 689,694 688,694 687,694 686,695 685,695 684,696 683,695 683,694 683,693 683,692 684,691 " style="fill:None; stroke:red; stroke-width:0.5" />
<polyline points=" 673,701 674,702 675,703 676,704 676,705 676,706 677,707 678,708 678,709 677,710 678,711 679,712 680,713 681,714 682,714 683,715 684,716 685,717 685,718 684,719 684,720 685,721 685,722 685,723 685,724 685,725 685,726 685,727 684,728 683,729 682,730 681,729 680,728 679,727 678,726 677,725 677,724 678,723 678,722 679,721 680,720 681,719 682,719 683,718 682,717 681,716 680,715 679,715 678,716 677,715 677,714 676,713 675,713 674,713 673,712 673,711 672,710 672,709 671,708 671,707 672,706 673,705 672,704 671,704 670,705 669,704 670,703 671,702 672,702 673,701 " style="fill:None; stroke:red; stroke-width:0.5" />
<polyline points=" 723,735 724,735 725,736 725,737 726,738 727,739 728,740 728,741 727,742 728,743 729,744 730,743 731,743 732,744 731,743 730,743 729,744 729,745 730,746 731,747 732,746 733,746 733,747 733,748 733,749 733,748 732,747 731,748 731,747 730,746 729,745 728,744 727,745 727,746 726,745 725,745 724,744 723,745 722,745 721,746 720,747 719,746 718,745 719,744 720,743 720,742 721,742 722,741 723,740 724,739 725,738 724,737 723,737 722,738 722,737 723,736 723,735 " style="fill:None; stroke:red; stroke-width:0.5" />
<polyline points=" 689,759 690,759 691,759 691,760 692,761 693,761 693,762 693,763 694,764 694,765 694,766 694,767 695,768 696,768 697,767 697,766 697,767 696,768 696,769 696,770 697,771 698,772 699,773 700,774 699,775 699,776 698,776 697,776 698,775 697,774 696,774 695,774 694,775 693,774 692,774 691,775 690,776 689,777 688,778 687,779 687,780 687,781 687,782 688,783 688,784 688,785 688,786 689,787 690,788 691,788 691,789 690,789 689,790 689,791 689,792 688,792 687,791 687,790 688,789 687,788 686,787 685,788 684,788 683,789 683,790 682,790 681,791 680,790 680,789 680,788 679,787 679,786 678,785 677,784 678,784 679,783 679,782 680,781 680,780 679,779 679,778 679,777 678,776 677,775 678,774 679,774 679,775 680,776 681,777 682,777 683,778 684,778 685,777 686,777 687,776 687,775 688,775 689,774 689,773 689,772 689,771 690,771 691,771 692,770 691,769 690,768 689,767 689,766 690,765 689,764 689,763 689,762 690,761 689,760 689,759 " style="fill:None; stroke:red; stroke-width:0.5" />
<polyline points=" 580,765 581,766 582,766 583,766 584,766 585,767 586,768 587,768 588,768 589,768 590,769 591,768 592,768 593,767 594,768 594,769 595,770 596,771 597,771 597,772 597,773 596,773 595,773 594,774 594,775 594,776 595,777 596,776 597,776 597,777 596,777 595,778 596,779 595,780 595,779 594,778 593,779 592,780 593,781 593,782 594,783 594,784 595,785 594,785 593,786 593,787 592,787 591,786 591,785 590,784 589,783 588,782 587,781 586,781 586,780 587,780 588,779 587,778 586,777 586,776 585,775 584,774 583,773 582,772 581,773 580,773 579,773 578,773 577,773 576,774 576,775 576,774 576,773 575,772 574,772 573,772 572,772 571,771 570,771 569,770 568,769 568,768 568,767 569,767 570,767 571,767 572,767 572,768 572,769 573,770 574,770 575,769 576,768 577,767 578,767 579,766 580,765 " style="fill:None; stroke:red; stroke-width:0.5" />
<polyline points=" 454,770 453,771 454,772 455,773 456,773 457,773 458,772 459,772 460,772 461,773 462,773 463,772 464,772 463,773 464,774 465,775 466,775 467,774 467,773 468,773 468,774 468,775 468,776 467,777 466,777 465,777 464,777 463,777 462,778 462,779 461,779 460,778 459,778 458,777 457,777 456,778 456,779 457,780 458,780 459,781 458,781 457,780 456,779 455,779 454,779 455,778 455,777 455,776 454,775 453,776 452,776 451,775 451,774 451,773 452,774 453,773 454,772 453,771 454,770 " style="fill:None; stroke:red; stroke-width:0.5" />
<polyline points=" 540,774 541,774 541,775 540,776 540,777 540,778 540,779 539,780 539,781 540,782 541,782 540,783 540,784 540,785 540,786 540,787 539,787 538,788 538,789 539,790 539,791 538,792 537,793 536,794 535,795 535,796 534,796 534,795 534,794 534,793 535,792 535,791 535,790 535,789 536,788 536,787 536,786 536,785 536,784 535,783 534,784 534,785 533,785 532,784 531,785 531,786 531,785 532,784 531,783 532,782 533,781 533,780 534,779 534,778 533,777 534,776 535,777 536,777 537,777 538,776 538,775 539,775 540,774 " style="fill:None; stroke:red; stroke-width:0.5" />
<polyline points=" 1140,778 1141,779 1142,779 1143,779 1144,778 1145,779 1146,779 1147,779 1148,779 1149,780 1150,781 1151,782 1152,782 1153,783 1154,783 1155,784 1156,784 1156,785 1157,786 1158,787 1159,788 1160,789 1160,790 1161,791 1160,792 1161,793 1162,793 1163,794 1164,795 1165,795 1165,796 1166,797 1167,797 1167,798 1168,799 1169,800 1168,800 1167,800 1166,800 1165,800 1164,800 1163,800 1162,800 1161,800 1160,800 1159,800 1158,800 1157,800 1156,799 1155,799 1154,798 1153,799 1152,798 1151,797 1150,797 1149,797 1149,796 1148,795 1147,794 1146,795 1145,796 1144,795 1143,796 1142,796 1141,796 1141,795 1140,794 1139,794 1138,794 1137,795 1136,796 1135,796 1134,796 1135,796 1136,796 1137,795 1136,794 1135,794 1134,794 1133,794 1133,793 1133,792 1133,791 1134,790 1134,789 1135,788 1136,787 1136,786 1136,785 1137,784 1137,783 1137,782 1138,781 1138,780 1138,779 1139,779 1140,778 " style="fill:None; stroke:red; stroke-width:0.5" />
</svg>